<?xml version="1.0" encoding="UTF-8"?>
<svg width="42px" height="42px" viewBox="0 0 42 42" version="1.1" xmlns="http://www.w3.org/2000/svg" xmlns:xlink="http://www.w3.org/1999/xlink">
    <!-- Generator: Sketch 58 (84663) - https://sketch.com -->
    <title>data_unavailable_button</title>
    <desc>Created with Sketch.</desc>
    <defs>
        <circle id="path-1" cx="20" cy="20" r="20"></circle>
        <filter x="-6.3%" y="-6.2%" width="117.5%" height="117.5%" filterUnits="objectBoundingBox" id="filter-2">
            <feOffset dx="1" dy="1" in="SourceAlpha" result="shadowOffsetOuter1"></feOffset>
            <feGaussianBlur stdDeviation="1" in="shadowOffsetOuter1" result="shadowBlurOuter1"></feGaussianBlur>
            <feColorMatrix values="0 0 0 0 0   0 0 0 0 0   0 0 0 0 0  0 0 0 0.5 0" type="matrix" in="shadowBlurOuter1"></feColorMatrix>
        </filter>
    </defs>
    <g id="data_unavailable_button" stroke="none" stroke-width="1" fill="none" fill-rule="evenodd">
        <g id="Group-5">
            <g id="Group-4">
                <g id="Oval">
                    <use fill="black" fill-opacity="1" filter="url(#filter-2)" xlink:href="#path-1"></use>
                    <use fill="#0F1621" fill-rule="evenodd" xlink:href="#path-1"></use>
                </g>
            </g>
            <path d="M30.8654971,13 L9.34502924,13 C8.60338012,13 8,13.5555418 8,14.2383901 L8,28.6037152 C8,29.2865635 8.60338012,29.8421053 9.34502924,29.8421053 L30.8654971,29.8421053 C31.6071462,29.8421053 32.2105263,29.2865635 32.2105263,28.6037152 L32.2105263,14.2383901 C32.2105263,13.5555418 31.6071462,13 30.8654971,13 Z M9.34502924,13.9907121 L30.8654971,13.9907121 C31.0139883,13.9907121 31.1345029,14.1019195 31.1345029,14.2383901 L31.1345029,16.9628483 L9.07602339,16.9628483 L9.07602339,14.2383901 C9.07602339,14.1019195 9.19653801,13.9907121 9.34502924,13.9907121 Z M16.3391813,24.8885449 L16.3391813,21.9164087 L23.871345,21.9164087 L23.871345,24.8885449 L16.3391813,24.8885449 Z M23.871345,25.879257 L23.871345,28.8513932 L16.3391813,28.8513932 L16.3391813,25.879257 L23.871345,25.879257 Z M23.871345,17.9535604 L23.871345,20.9256966 L16.3391813,20.9256966 L16.3391813,17.9535604 L23.871345,17.9535604 Z M15.2631579,20.9256966 L9.07602339,20.9256966 L9.07602339,17.9535604 L15.2631579,17.9535604 L15.2631579,20.9256966 Z M15.2631579,21.9164087 L15.2631579,24.8885449 L9.07602339,24.8885449 L9.07602339,21.9164087 L15.2631579,21.9164087 Z M24.9473684,21.9164087 L31.1345029,21.9164087 L31.1345029,24.8885449 L24.9473684,24.8885449 L24.9473684,21.9164087 Z M24.9473684,20.9256966 L24.9473684,17.9535604 L31.1345029,17.9535604 L31.1345029,20.9256966 L24.9473684,20.9256966 Z M9.07602339,28.6037152 L9.07602339,25.879257 L15.2631579,25.879257 L15.2631579,28.8513932 L9.34502924,28.8513932 C9.19653801,28.8513932 9.07602339,28.7401858 9.07602339,28.6037152 Z M30.8654971,28.8513932 L24.9473684,28.8513932 L24.9473684,25.879257 L31.1345029,25.879257 L31.1345029,28.6037152 C31.1345029,28.7401858 31.0139883,28.8513932 30.8654971,28.8513932 Z" id="Shape" fill="#FFFFFF" fill-rule="nonzero"></path>
        </g>
    </g>
</svg>