<?xml version="1.0" encoding="utf-8"?>
<!-- Generator: Adobe Illustrator 22.1.0, SVG Export Plug-In . SVG Version: 6.00 Build 0)  -->
<svg version="1.1" id="lui-icon-business-ondark-solid-large"
	 xmlns="http://www.w3.org/2000/svg" xmlns:xlink="http://www.w3.org/1999/xlink" x="0px" y="0px" viewBox="0 0 48 48"
	 enable-background="new 0 0 48 48" xml:space="preserve">
<g>
	<g id="lui-icon-business-ondark-solid-large-bounding-box" opacity="0">
		<path fill="#212121" d="M47,1v46H1V1H47 M48,0H0v48h48V0L48,0z"/>
	</g>
	<path fill="#FFFFFF" d="M43.5,2h-14C28.12,2,27,3.1454,27,4.5568V46h19V4.5568C46,3.1454,44.88,2,43.5,2z M35,40h-3v-6h3V40z
		 M35,31h-3v-6h3V31z M35,22h-3v-6h3V22z M35,13h-3V7h3V13z M41,40h-3v-6h3V40z M41,31h-3v-6h3V31z M41,22h-3v-6h3V22z M41,13h-3V7
		h3V13z"/>
	<path fill="#FFFFFF" d="M13,11.5V46h12V9h-9.5C14.1193,9,13,10.1193,13,11.5z M21,40h-3v-6h3V40z M21,31h-3v-6h3V31z M21,22h-3v-6
		h3V22z"/>
	<path fill="#FFFFFF" d="M4.5,18.02c-1.38,0-2.5,1.1308-2.5,2.5018V46h9V18L4.5,18.02z M8,40H5v-6h3V40z M8,31H5v-6h3V31z"/>
</g>
</svg>
