<?xml version="1.0" encoding="utf-8"?>
<!-- Generator: Adobe Illustrator 22.1.0, SVG Export Plug-In . SVG Version: 6.00 Build 0)  -->
<svg version="1.1" id="lui-icon-attraction-ondark-solid-large"
	 xmlns="http://www.w3.org/2000/svg" xmlns:xlink="http://www.w3.org/1999/xlink" x="0px" y="0px" viewBox="0 0 48 48"
	 enable-background="new 0 0 48 48" xml:space="preserve">
<g>
	<g id="lui-icon-attraction-ondark-solid-large-bounding-box" opacity="0">
		<g>
			<path fill="#FFFFFF" d="M47,1v46H1V1H47 M48,0H0v48h48V0L48,0z"/>
		</g>
	</g>
	<g>
		<path fill="#FFFFFF" d="M44,10H15V6H7v4H4c-1.66,0-3,1.34-3,3v24c0,1.6599,1.34,3,3,3h40c1.66,0,3-1.3401,3-3V13
			C47,11.34,45.66,10,44,10z M16,19H6v-4h10V19z M30.5,36C24.1489,36,19,30.8511,19,24.5S24.1489,13,30.5,13S42,18.1489,42,24.5
			S36.8511,36,30.5,36z"/>
	</g>
	<path fill="#FFFFFF" d="M30.4893,16.0307C25.8083,16.0307,22,19.8276,22,24.52c0,4.6922,3.8083,8.4893,8.4893,8.4893
		c4.6924,0,8.5007-3.7971,8.5007-8.4893C38.99,19.8276,35.1817,16.0307,30.4893,16.0307z M30.49,31.01
		c-3.5766,0-6.49-2.9015-6.49-6.49s2.9134-6.49,6.49-6.49c3.5885,0,6.49,2.9015,6.49,6.49S34.0785,31.01,30.49,31.01z"/>
</g>
</svg>
