<?xml version="1.0" encoding="utf-8"?>
<!-- Generator: Adobe Illustrator 22.1.0, SVG Export Plug-In . SVG Version: 6.00 Build 0)  -->
<svg version="1.1" id="lui-icon-destinationpin-ondark-solid-large"
	 xmlns="http://www.w3.org/2000/svg" xmlns:xlink="http://www.w3.org/1999/xlink" x="0px" y="0px" viewBox="0 0 48 48"
	 enable-background="new 0 0 48 48" xml:space="preserve">
<g>
	<g id="lui-icon-destinationpin-ondark-solid-large-bounding-box" opacity="0">
		<path fill="#FFFFFF" d="M47,1v46H1V1H47 M48,0H0v48h48V0L48,0z"/>
	</g>
	<path fill-rule="evenodd" clip-rule="evenodd" fill="#FFFFFF" d="M24,2C13.8708,2,5.6667,10.1584,5.6667,20.2233
		c0,5.0325,2.0533,9.5884,5.3717,12.8883L24,46l12.9617-12.8883c3.3183-3.3,5.3717-7.8558,5.3717-12.8883
		C42.3333,10.1584,34.1292,2,24,2z M24,25c-2.765,0-5-2.235-5-5s2.235-5,5-5s5,2.235,5,5S26.765,25,24,25z"/>
</g>
</svg>
