<?xml version="1.0" encoding="utf-8"?>
<!-- Generator: Adobe Illustrator 22.1.0, SVG Export Plug-In . SVG Version: 6.00 Build 0)  -->
<svg version="1.1" id="lui-icon-bus-ondark-solid-large"
	 xmlns="http://www.w3.org/2000/svg" xmlns:xlink="http://www.w3.org/1999/xlink" x="0px" y="0px" viewBox="0 0 48 48"
	 enable-background="new 0 0 48 48" xml:space="preserve">
<g>
	<g id="lui-icon-bus-ondark-solid-large-bounding-box" opacity="0">
		<path fill="#FFFFFF" d="M47,1v46H1V1H47 M48,0H0v48h48V0L48,0z"/>
	</g>
	<path fill="#FFFFFF" d="M37,1H11C8.24,1,6,3.24,6,6v36h3v2c0,1.65,1.35,3,3,3h5v-5h14l-0.0003,5H36c1.65,0,3-1.35,3-3v-2h3V6
		C42,3.24,39.76,1,37,1z M12,5c0-0.55,0.45-1,1-1h22c0.55,0,1,0.45,1,1v1c0,0.55-0.45,1-1,1H13c-0.55,0-1-0.45-1-1V5z M20,37h-9v-3
		h9V37z M37,37h-9v-3h9V37z M39,24H9V11c0-1.1,0.9-2,2-2h26c1.1,0,2,0.9,2,2V24z"/>
	<rect x="45" y="10" fill="#FFFFFF" width="2" height="14"/>
	<rect x="1" y="10" fill="#FFFFFF" width="2" height="14"/>
</g>
</svg>
