<?xml version="1.0" encoding="utf-8"?>
<!-- Generator: Adobe Illustrator 22.1.0, SVG Export Plug-In . SVG Version: 6.00 Build 0)  -->
<svg version="1.1" id="lui-icon-cardrivemode-ondark-solid-large"
	 xmlns="http://www.w3.org/2000/svg" xmlns:xlink="http://www.w3.org/1999/xlink" x="0px" y="0px" viewBox="0 0 48 48"
	 enable-background="new 0 0 48 48" xml:space="preserve">
<g>
	<g id="lui-icon-cardrivemode-ondark-solid-large-bounding-box" opacity="0">
		<g>
			<path fill="#FFFFFF" d="M47,1v46H1V1H47 M48,0H0v48h48V0L48,0z"/>
		</g>
	</g>
	<g>
		<path fill="#FFFFFF" d="M37,36.9944v-2.9993H11.0078v2.9993H5.5391C4.1387,36.9944,3,35.8552,3,34.4548V24.187
			c0-0.7388,0.0737-0.8308,0.3491-1.1731l1.7886-2.0361H2V19.998h2.6094c0.8853,0,1.7017-0.3721,2.2983-1.0476l4.8647-5.561
			l0.3091-0.3428l0.3398-0.3899c0.3535-0.4409,0.7891-0.657,1.2856-0.657h20.5762c0.4824,0,0.9287,0.2148,1.2236,0.5894
			l5.6924,6.5078c0.6338,0.6052,1.3779,0.9011,2.1611,0.9011H46v0.9897h-3.167l1.8486,2.0918
			c0.2373,0.2942,0.3086,0.3818,0.3086,1.1074v10.2678c0,1.4004-1.1387,2.5396-2.5391,2.5396H37z M6,31.0027h7.9985v-4.9988H6
			V31.0027z M34,30.999h7.999v-4.9988H34V30.999z M16,30.999h15.9971v-4.9988H16V30.999z M6.2754,21.1804l17.7217,2.8289
			l17.7988-2.7295l-7.2598-8.2803H13.4336L6.2754,21.1804z"/>
		<path fill="#FFFFFF" d="M5.5084,22.0703l2.3948,0.3823l15.7815,2.5195l0.1774,0.0283H17h-1.9996V27v2.9995v1.9995H17h13.9969
			h1.9996v-1.9995V27v-1.9995h-1.9996h-6.8661l0.1723-0.0264l15.8416-2.4297l2.4028-0.3687l1.0049,1.1367l0.3555,0.4019
			c0.023,0.0278,0.0446,0.0542,0.0638,0.0811c0.0075,0.0532,0.019,0.1709,0.019,0.3916v10.2681
			c0,0.8491-0.6907,1.5396-1.5396,1.5396h-4.4514v-1v-1.9995H36H12.0076h-1.9996v1.9995v1h-4.469
			c-0.849,0-1.5397-0.6904-1.5397-1.5396V24.187c0-0.2334,0.0116-0.3521,0.0191-0.4043c0.0155-0.022,0.0415-0.0566,0.0845-0.1108
			l0.3296-0.3755L5.5084,22.0703 M33.0004,31.999H35h5.9987h1.9996v-1.9995V27v-1.9995h-1.9996H35h-1.9996V27v2.9995V31.999
			 M5.0004,32.0024H7h5.9987h1.9996v-1.9995v-2.9995v-1.9995h-1.9996H7H5.0004v1.9995v2.9995V32.0024 M34.2828,11H13.7072
			c-0.7898,0-1.5197,0.3501-2.0395,1l-0.34,0.3896h-0.01l-5.1588,5.8989C5.779,18.7183,5.2391,18.998,4.6093,18.998H1v2.9795h1.9296
			l-0.3599,0.4102c-0.4099,0.5098-0.5699,0.8096-0.5699,1.7993v10.2681c0,1.9595,1.5797,3.5391,3.5393,3.5391h6.4686v-2.9995H36
			v2.9995h6.451c1.9496,0,3.5392-1.5796,3.5392-3.5391V24.187c0-0.9897-0.17-1.2896-0.5599-1.7695l-0.3799-0.4297H47V18.998h-3.6392
			c-0.5399,0-1.0398-0.21-1.4097-0.5596l-5.5388-6.3286l-0.12-0.1401C35.8024,11.3501,35.0626,11,34.2828,11L34.2828,11z
			 M24,22.9976L8.2185,20.478l5.6687-6.4785h20.1956l5.7588,6.5684L24,22.9976L24,22.9976z M35,29.9995V27h5.9987v2.9995H35
			L35,29.9995z M17,29.9995V27h13.9969v2.9995H17L17,29.9995z M7,30.0029v-2.9995h5.9987v2.9995H7L7,30.0029z"/>
	</g>
</g>
</svg>
