<?xml version="1.0" encoding="utf-8"?>
<!-- Generator: Adobe Illustrator 22.1.0, SVG Export Plug-In . SVG Version: 6.00 Build 0)  -->
<svg version="1.1" id="lui-icon-facilities-ondark-solid-large"
	 xmlns="http://www.w3.org/2000/svg" xmlns:xlink="http://www.w3.org/1999/xlink" x="0px" y="0px" viewBox="0 0 48 48"
	 enable-background="new 0 0 48 48" xml:space="preserve">
<g>
	<path fill="#FFFFFF" d="M24,1L2,12h5v31c0,2.21,1.79,4,4,4h26c2.21,0,4-1.79,4-4V12h5L24,1z M17,42h-3v-6h3V42z M17,31h-3v-6h3V31z
		 M17,20h-3v-6h3V20z M25,42h-3v-6h3V42z M25,31h-3v-6h3V31z M25,20h-3v-6h3V20z M33,42h-3v-6h3V42z M33,31h-3v-6h3V31z M33,20h-3
		v-6h3V20z"/>
	<g id="lui-icon-facilities-ondark-solid-large-bounding-box" opacity="0">
		<path fill="#686868" d="M47,1v46H1V1H47 M48,0H0v48h48V0L48,0z"/>
	</g>
</g>
</svg>
