<?xml version="1.0" encoding="utf-8"?>
<!-- Generator: Adobe Illustrator 22.1.0, SVG Export Plug-In . SVG Version: 6.00 Build 0)  -->
<svg version="1.1" id="lui-icon-airport-ondark-solid-large"
	 xmlns="http://www.w3.org/2000/svg" xmlns:xlink="http://www.w3.org/1999/xlink" x="0px" y="0px" viewBox="0 0 48 48"
	 enable-background="new 0 0 48 48" xml:space="preserve">
<g id="lui-icon-airport-ondark-solid-large-group">
	<g id="lui-icon-airport-ondark-solid-large-bounding-box" opacity="0">
		<path fill="#FFFFFF" d="M47,1v46H1V1H47 M48,0H0v48h48V0L48,0z"/>
	</g>
	<path fill="#FFFFFF" d="M42.64,10.1499c-4.26,4.9302-5.87,6.5901-5.87,6.5901c-0.01,4.8201,0.64,23.3601-0.0801,25.1399
		c-0.4099,1.04-3.7799,4.4302-3.7799,4.4302l-5.6901-20.71L16.86,34.72l1.8101,8.3501l-6.79-6.79l-6.7899-6.8l8.3398,1.8101
		l9.1301-10.3601L1.8501,15.25c0,0,3.3899-3.3701,4.4199-3.79c1.78-0.72,20.3201-0.0601,25.14-0.0698c0,0,1.66-1.6201,6.6-5.8701
		c5.62-5.2,7.72-3.1001,7.72-3.1001S47.8301,4.52,42.64,10.1499z"/>
</g>
</svg>
