<?xml version="1.0" encoding="utf-8"?>
<!-- Generator: Adobe Illustrator 22.1.0, SVG Export Plug-In . SVG Version: 6.00 Build 0)  -->
<svg version="1.1" id="lui-icon-coffee-ondark-solid-large"
	 xmlns="http://www.w3.org/2000/svg" xmlns:xlink="http://www.w3.org/1999/xlink" x="0px" y="0px" viewBox="0 0 48 48"
	 enable-background="new 0 0 48 48" xml:space="preserve">
<g>
	<g id="lui-icon-coffee-ondark-solid-large-bounding-box" opacity="0">
		<g>
			<path fill="#FFFFFF" d="M47,1v46H1V1H47 M48,0H0v48h48V0L48,0z"/>
		</g>
	</g>
	<path fill="none" stroke="#FFFFFF" stroke-width="2" stroke-miterlimit="10" d="M35.3791,19"/>
	<polyline fill="none" stroke="#FFFFFF" stroke-width="2" stroke-miterlimit="10" points="34.2878,29 42.2878,29.0157 42.2878,19
		35.2741,19 	"/>
	<path fill="none" stroke="#FFFFFF" stroke-width="2" stroke-miterlimit="10" d="M41.4238,41c0,2.2-1.8,4-4,4H9.6797
		c-2.2,0-4-1.8-4-4"/>
	<path fill="none" stroke="#FFFFFF" stroke-width="2" stroke-miterlimit="10" d="M21.0149,3.9545c0,0-2.0149,0.1876-2.0149,2.4402
		S21,8.7474,21,11s-2,3-2,3"/>
	<path fill="none" stroke="#FFFFFF" stroke-width="2" stroke-miterlimit="10" d="M27.0149,3.9545c0,0-2.0149,0.1876-2.0149,2.4402
		S27,8.7474,27,11s-2,3-2,3"/>
	<path fill="#FFFFFF" stroke="#FFFFFF" stroke-width="2" stroke-miterlimit="10" d="M35.6234,19L33.637,36.0203
		c0,1.6389-1.3408,2.9797-2.9797,2.9797H15.3155c-1.6388,0-2.9797-1.3408-2.9797-2.9797L10.3493,19H35.6234z"/>
	<path fill="none" stroke="#FFFFFF" stroke-width="2" stroke-miterlimit="10" d="M34.6372,29"/>
</g>
</svg>
