<?xml version="1.0" encoding="utf-8"?>
<!-- Generator: Adobe Illustrator 22.1.0, SVG Export Plug-In . SVG Version: 6.00 Build 0)  -->
<svg version="1.1" id="lui-icon-eatanddrink-ondark-solid-large"
	 xmlns="http://www.w3.org/2000/svg" xmlns:xlink="http://www.w3.org/1999/xlink" x="0px" y="0px" viewBox="0 0 48 48"
	 enable-background="new 0 0 48 48" xml:space="preserve">
<g>
	<g id="lui-icon-eatanddrink-ondark-solid-large-bounding-box" opacity="0">
		<path fill="#FFFFFF" d="M47,1v46H1V1H47 M48,0H0v48h48V0L48,0z"/>
	</g>
	<line fill="none" stroke="#FFFFFF" stroke-width="3" stroke-miterlimit="10" x1="16.5" y1="20" x2="16.5" y2="46"/>
	<line fill="#FFFFFF" stroke="#FFFFFF" stroke-width="3" stroke-miterlimit="10" x1="16.5" y1="15" x2="16.5" y2="3"/>
	<path fill="#FFFFFF" stroke="#FFFFFF" stroke-width="2" stroke-miterlimit="10" d="M37,46V3h-3c-2.2,0-4,1.8-4,4v19h4v20
		C34,46,37.1667,46,37,46z"/>
	<path fill="#FFFFFF" stroke="#FFFFFF" stroke-width="2" stroke-miterlimit="10" d="M23,13v2c0,2.75-2.25,5-5,5h-3
		c-2.75,0-5-2.25-5-5v-2H23z"/>
	<line fill="#FFFFFF" stroke="#FFFFFF" stroke-width="2" stroke-miterlimit="10" x1="10" y1="15" x2="10" y2="3"/>
	<line fill="#FFFFFF" stroke="#FFFFFF" stroke-width="2" stroke-miterlimit="10" x1="23" y1="15" x2="23" y2="3"/>
	<line fill="#FFFFFF" stroke="#FFFFFF" stroke-width="2" stroke-miterlimit="10" x1="11" y1="15" x2="11" y2="3"/>
	<line fill="#FFFFFF" stroke="#FFFFFF" stroke-width="2" stroke-miterlimit="10" x1="22" y1="15" x2="22" y2="3"/>
</g>
</svg>
