<?xml version="1.0" encoding="utf-8"?>
<!-- Generator: Adobe Illustrator 22.1.0, SVG Export Plug-In . SVG Version: 6.00 Build 0)  -->
<svg version="1.1" id="lui-icon-foodpizza-ondark-solid-large"
	 xmlns="http://www.w3.org/2000/svg" xmlns:xlink="http://www.w3.org/1999/xlink" x="0px" y="0px" viewBox="0 0 48 48"
	 enable-background="new 0 0 48 48" xml:space="preserve">
<g>
	<g id="lui-icon-foodpizza-ondark-solid-large-bounding-box" opacity="0">
		<path fill="#686868" d="M47,1v46H1V1H47 M48,0H0v48h48V0L48,0z"/>
	</g>
	<path fill="#FFFFFF" d="M45.6801,24.78L23.53,2.36c-0.79-0.8-1.78-1.16-2.73-0.98s-1.75,0.88-2.19,1.92l-0.87,2.05L37.97,25.5
		l-1.41,1.42l-19.67-19.59l-15.32,36.03c-0.65,1.53-0.16,2.35,0.19,2.71c0.23,0.23,0.66,0.52,1.36,0.52c0.37,0,0.81-0.08,1.35-0.3
		l40.22-16.61c1.04-0.43,1.75-1.21,1.94-2.16C46.8201,26.58,46.47,25.58,45.6801,24.78z M14.0701,38.1c-2.48,0-4.5-2.02-4.5-4.5
		c0-2.48,2.02-4.5,4.5-4.5s4.5,2.02,4.5,4.5C18.5701,36.08,16.55,38.1,14.0701,38.1z M15.5701,20.02c0-2.71,2.21-4.92,4.92-4.92
		c2.72,0,4.92,2.21,4.92,4.92c0,2.72-2.2,4.92-4.92,4.92C17.78,24.94,15.5701,22.74,15.5701,20.02z M25.5001,34
		c-2.48,0-4.5-2.02-4.5-4.5s2.02-4.5,4.5-4.5s4.5,2.02,4.5,4.5S27.98,34,25.5001,34z"/>
</g>
</svg>
