<?xml version="1.0" encoding="utf-8"?>
<!-- Generator: Adobe Illustrator 22.1.0, SVG Export Plug-In . SVG Version: 6.00 Build 0)  -->
<svg version="1.1" id="lui-icon-nature-ondark-solid-large"
	 xmlns="http://www.w3.org/2000/svg" xmlns:xlink="http://www.w3.org/1999/xlink" x="0px" y="0px" viewBox="0 0 48 48"
	 enable-background="new 0 0 48 48" xml:space="preserve">
<g>
	<g id="lui-icon-nature-ondark-solid-large-bounding-box" opacity="0">
		<path fill="#48DAD0" d="M47,1v46H1V1H47 M48,0H0v48h48V0L48,0z"/>
	</g>
	<path fill="#FFFFFF" d="M45.1066,4.0283l0.14-1.1999l-0.1953,0.1851l0.1908-0.1897l-1.1999,0.14
		c-19.35,2.1601-25.6345,4.4154-29.6346,8.4155c-2.9598,2.9601-4.58,6.8801-4.5799,11.06c-0.0101,3.6501,1.23,7.0999,3.53,9.9099
		l-0.4699,0.55l-9.3301,9.3899l0.0306,0.0303l-0.0002,0.0002l2.193,2.1931l9.39-9.3301l0.55-0.4699
		c2.81,2.3,6.2597,3.54,9.9099,3.53c4.1799,0.0001,8.0999-1.62,11.06-4.5799C40.6911,29.6628,42.9465,23.3783,45.1066,4.0283z"/>
</g>
</svg>
