<svg xmlns="http://www.w3.org/2000/svg" xmlns:xlink="http://www.w3.org/1999/xlink" viewBox="0 0 584.27 549.29">
  <defs>
    <style>
      .cls-1,.cls-5,
      .cls-6,.cls-7{fill:none;}
      .cls-2{clip-path:url(#clip-path);}
      .cls-3{fill:#2d9ed5;opacity:0.3;}
      .cls-4{fill:#2d9ed5;}
      .cls-5{stroke:#fff;}
      .cls-5,.cls-6,.cls-7{stroke-miterlimit:10;}
      .cls-6{stroke:#d6eeef;}.cls-7{stroke:#86d1d1;}
      .cls-8{clip-path:url(#clip-path-2);}
      .cls-9{fill:#2d9ed5;}
      .cls-10{fill:#fff;}
    </style>
    <clipPath id="clip-path" transform="translate(0 -12.32)">
      <rect class="cls-1" x="29.01" width="559.75" height="569.09"/>
    </clipPath>
    <clipPath id="clip-path-2" transform="translate(0 -12.32)">
      <circle class="cls-1" cx="316.21" cy="379.58" r="181.99"/>
    </clipPath>
  </defs>
  <title>Asset 5</title>
  <g id="Layer_2" data-name="Layer 2">
    <g id="Layer_1-2" data-name="Layer 1">
      <g class="cls-2">
        <circle class="cls-3" cx="274.65" cy="274.65" r="274.65"/>
        <circle class="cls-4" cx="317.17" cy="366.42" r="181.54"/>
        <polyline class="cls-5"
                  points="465.72 321.97 423.01 374.91 417.49 278.23 472.08 323.75 579.76 365.57 469.81 276.15 419.38 276.6 417.49 278.23 365.77 322.86 315.34 362.9 358.95 356.23 423.01 374.91 390.3 440.31 312.38 364.01 223.56 287.27 181.31 298.84 213.11 343.33 50.91 402.05 110.89 331.76 83.17 343.77 84.08 293.5 64.09 269.92 29.56 291.72 42.74 303.73 29.56 309.52"/>
        <polygon class="cls-5" points="564.77 276.6 469.81 276.15 491.17 233 564.77 276.6"/>
        <polygon class="cls-5" points="390.3 440.31 476.17 453.65 417.56 492.8 390.3 440.31"/>
        <polyline class="cls-5"
                  points="94.53 284.16 64.09 269.92 65.91 238.34 128.6 210.75 99.98 250.79 87.72 204.53 65.91 232.11"/>
        <polyline class="cls-5"
                  points="46.83 302.84 35.92 349.55 83.17 343.77 41.37 377.14 29.11 421.62 46.83 401.61 83.63 340.21 46.83 302.84 67.27 270.81 99.98 250.79 132.69 254.8 94.53 284.16 123.15 292.17 177.67 297.5 173.58 270.81 189.94 252.13 224.02 265.47 220.44 287.41 213.11 340.21 110.89 328.2 207.3 390.89 311.25 362.9 247.89 423.51 390.3 440.31 358.95 356.23 365.77 322.86 423.01 374.91 544.32 385.59 579.76 365.57 476.17 453.65 423.01 374.91"/>
        <polyline class="cls-5"
                  points="84.08 293.5 110.89 328.2 123.15 292.17 213.11 340.21 311.25 362.9 315.79 475.9 247.89 423.51"/>
        <polygon class="cls-6" points="390.22 440.94 476.09 454.29 417.48 493.44 390.22 440.94"/>
        <polyline class="cls-7"
                  points="465.64 322.61 422.93 375.55 417.4 278.86 472 324.38 578.63 366.13 469.73 276.78 419.3 277.23 417.4 278.86 365.69 323.5 312.66 364.25 358.87 356.86 422.93 375.55 390.22 440.94 312.3 364.65 223.48 287.9 181.22 299.47 213.03 343.96 50.83 402.68 110.45 329.17 83.09 344.4 84 294.13 64.01 270.56 29.48 292.35 46.3 303.68 29.48 310.15"/>
        <polygon class="cls-7" points="564.68 277.23 469.73 276.78 491.08 233.63 564.68 277.23"/>
        <polyline class="cls-7"
                  points="94.45 284.79 64.01 270.56 65.82 238.97 128.52 211.39 99.9 251.43 87.63 205.16 65.87 238.6"/>
        <polyline class="cls-7"
                  points="46.74 303.48 35.84 350.19 83.55 341.68 41.29 377.77 29.02 422.26 51.2 402.25 83.54 340.85 46.74 303.48 63.99 270.58 99.9 251.43 132.61 255.43 94.45 284.79 123.07 292.8 177.59 298.14 173.5 271.44 189.86 252.76 223.93 266.11 220.35 288.05 213.03 340.85 110.8 328.83 207.22 391.53 311.17 363.53 247.81 424.15 390.22 440.94 358.87 356.86 365.69 323.5 422.93 375.55 544.24 386.22 579.68 366.2 476.09 454.29 422.93 375.55"/>
        <polyline class="cls-7"
                  points="84 294.13 110.8 328.83 123.07 292.8 213.03 340.85 311.17 363.53 315.71 476.53 247.81 424.15"/>
        <g class="cls-8">
          <polyline class="cls-5"
                    points="470.13 323.8 422.82 374.59 417.35 278.89 471.39 323.95 577.97 365.35 469.14 276.84 419.22 277.28 417.35 278.89 366.15 323.07 316.24 362.7 359.41 356.1 422.82 374.59 390.44 439.32 313.31 363.81 225.4 287.85 183.57 299.3 215.05 343.33 54.51 401.45 113.87 331.88 86.44 343.77 87.34 294.01 67.55 270.67 33.37 292.25 46.41 304.14 33.37 309.86"/>
          <polygon class="cls-5" points="563.13 277.28 469.14 276.84 490.27 234.12 563.13 277.28"/>
          <polygon class="cls-5" points="390.44 439.32 475.43 452.53 417.42 491.28 390.44 439.32"/>
          <polyline class="cls-5"
                    points="97.68 284.76 67.55 270.67 69.35 239.41 131.41 212.11 103.08 251.74 90.93 205.94 69.35 233.24"/>
          <polyline class="cls-5"
                    points="50.46 303.26 39.67 349.49 86.44 343.77 45.06 376.8 32.92 420.83 50.46 401.01 86.89 340.25 50.46 303.26 70.7 271.55 103.08 251.74 135.46 255.7 97.68 284.76 126.01 292.69 179.98 297.97 175.93 271.55 192.12 253.06 225.85 266.27 222.3 287.99 215.05 340.25 113.87 328.36 209.3 390.41 312.19 362.7 249.48 422.7 390.44 439.32 359.41 356.1 366.15 323.07 422.82 374.59 542.89 385.16 577.97 365.35 475.43 452.53 422.82 374.59"/>
          <polyline class="cls-5"
                    points="87.34 294.01 113.87 328.36 126.01 292.69 215.05 340.25 312.19 362.7 316.69 474.55 249.48 422.7"/>
        </g>
        <circle class="cls-9" cx="134.98" cy="254.88" r="2.04"/>
        <circle class="cls-9" cx="122.93" cy="292.39" r="3.45"/>
        <circle class="cls-9" cx="94.58" cy="285.44" r="2.46"/>
        <circle class="cls-9" cx="84.43" cy="294.43" r="2.04"/>
        <circle class="cls-9" cx="65.73" cy="238.97" r="2.04"/>
        <circle class="cls-9" cx="129.83" cy="210.63" r="2.06"/>
        <circle class="cls-10" cx="415.75" cy="277.84" r="4.51"/>
        <circle class="cls-10" cx="422.05" cy="376.24" r="4.51"/>
        <circle class="cls-10" cx="389.73" cy="440.97" r="4.51"/>
        <circle class="cls-10" cx="358.98" cy="356.8" r="4.51"/>
        <circle class="cls-10" cx="416.07" cy="494.46" r="4.51"/>
        <circle class="cls-10" cx="471.25" cy="322.49" r="4.51"/>
        <circle class="cls-10" cx="468.73" cy="276.12" r="3.34"/>
        <circle class="cls-10" cx="365.02" cy="323.05" r="4.51"/>
        <circle class="cls-10" cx="314.66" cy="431.4" r="4.51"/>
        <circle class="cls-10" cx="316.25" cy="477.45" r="4.51"/>
        <circle class="cls-9" cx="580.82" cy="366.18" r="3.45"/>
        <circle class="cls-9" cx="544.77" cy="386.07" r="2.26"/>
        <circle class="cls-9" cx="566.98" cy="277.65" r="2.26"/>
        <circle class="cls-9" cx="491.86" cy="233.25" r="2.26"/>
        <circle class="cls-9" cx="88.08" cy="203.26" r="2.06"/>
        <circle class="cls-9" cx="34.28" cy="351.45" r="2.06"/>
        <circle class="cls-9" cx="40.76" cy="378.27" r="2.06"/>
        <circle class="cls-9" cx="28.98" cy="310.69" r="2.06"/>
        <circle class="cls-9" cx="100.72" cy="251.09" r="3.45"/>
        <circle class="cls-9" cx="93.31" cy="227.01" r="3.45"/>
        <circle class="cls-9" cx="51.76" cy="402.53" r="3.65"/>
        <circle class="cls-9" cx="82.75" cy="342.39" r="4.38"/>
        <circle class="cls-9" cx="46.7" cy="304.27" r="4.72"/>
        <circle class="cls-9" cx="63.57" cy="270.49" r="3.65"/>
        <circle class="cls-9" cx="110.96" cy="328.26" r="3.83"/>
        <circle class="cls-10" cx="248.29" cy="422.74" r="3.63"/>
        <circle class="cls-10" cx="163.07" cy="362.88" r="4.51"/>
        <circle class="cls-10" cx="212.63" cy="340.99" r="4.51"/>
        <circle class="cls-10" cx="225.02" cy="286.65" r="3.39"/>
        <circle class="cls-10" cx="224.63" cy="265.72" r="3.16"/>
        <circle class="cls-10" cx="190.27" cy="251.81" r="3.45"/>
        <circle class="cls-10" cx="173.59" cy="270.91" r="3.45"/>
        <circle class="cls-10" cx="179.26" cy="298.58" r="4.25"/>
        <circle class="cls-10" cx="473.59" cy="453.82" r="3.45"/>
      </g>
    </g>
  </g>
</svg>
