<svg xmlns="http://www.w3.org/2000/svg" viewBox="0 0 276.8 564.49">
  <defs>
    <style>
      .cls-1{fill:#383c45;}
      .cls-2{fill:#3d1e88;}
      .cls-3{fill:#bb1e71;}
      .cls-4{fill:#f99e1c;}
      .cls-5{fill:#fff;}
      .cls-6{fill:#e6e7e8;}
      .cls-7{fill:#231f20;}
    </style>
  </defs>
  <title>Asset 25</title>
  <g id="Layer_2" data-name="Layer 2">
    <g id="Layer_1-2" data-name="Layer 1">
      <path class="cls-1" d="M125.75,382.32l-117.32,81L13,476.59l115.26-53s26.32-14.31,25.55-26.07l1.32-3.86Z"/>
      <path class="cls-2"
            d="M220.82,189.91l-38.14,37.51c-6,5.92-17-2.72-17-2.72s-10.9,23.5-10.56,33.39-.69,23.5-.69,23.5l-24.87,23.17c-13.1,13.06-4.09,63-4.09,63,2.73,10.22-2,13.63-2,13.63l68.82,26.23c6.82-33,3.27-53.87-3.54-70.3-7.16-17.25-7.16-37.75-5.21-47.51S195,275.17,195,275.17c13.29-8.51,10.18-18.11,9.16-22.54a14.25,14.25,0,0,1,.34-7.83l30.21-46.73Z"/>
      <path class="cls-1" d="M190.63,407l-68.9,149.38H111.25s25-128.49,37.51-150.47l.54-14.53Z"/>
      <path class="cls-3" d="M121.12,556.06,144.8,559s4.77,3.07,1.7,4.77-37.82,0-37.82,0l2-7.67Z"/>
      <path class="cls-3" d="M13,476.59l3.32,20.7s-1.36,4.43-5.11,0S0,467.31,0,467.31l8.43-4Z"/>
      <polygon class="cls-2"
               points="217.87 187.37 207.49 179.98 186.71 201.22 176.49 222.69 189.35 235.63 217.87 187.37"/>
      <path class="cls-4"
            d="M217.87,187.37l6.65-11.15L229.29,114s6.82-12.27,0-18.4l-4.19,12.27a45.94,45.94,0,0,0-2.19-5.51c-.92-1.84.25,11.3.25,11.3L216,167.15,207.49,180Z"/>
      <path class="cls-4"
            d="M190.45,192l4.09,14-4.09,1.33V211s.34,8.29-7.83,9.31v7.5s-3.07,5.11-11.59,0v-15s-7.49-12.6,4.09-6.81h0S170,186.57,190.45,192Z"/>
      <path class="cls-3"
            d="M194.54,183.16s-6.13-7.15-12.94,0c0,0-27.94-7.28-29.65,16.29s-2,30.5-2,30.5.34,14.88-19.08,14.54-25.55,19.42-23.17,33.73a17.86,17.86,0,0,0,15.67,15.33s7.84,1,7.5-6.47,3.75-13.29,9.54-13.63,33.39-10.22,32-31.35l2-26.1-5.18-6.92s-1.87-6.9,5.86-3.09c0,0,3.07,4.09,4.77-1,0,0,1-9.88,14.65-10.9C194.54,194.07,197.61,185.47,194.54,183.16Z"/>
      <circle class="cls-5" cx="188.23" cy="201.66" r="1.27"/>
      <polygon class="cls-6"
               points="276.8 54.67 256.33 27.34 235.85 0 215.38 27.34 194.91 54.67 214.66 54.67 214.66 124.27 257.05 124.27 257.05 54.67 276.8 54.67"/>
      <path class="cls-4"
            d="M220.72,190.14l3.26-3.21,10.56-71.55V109s3.45,6.46,3.75,3.34c.44-4.52,3.06-12.26,3.06-12.26s5.8,7.83,0,21.8c0,0,1.37,64.4-4.42,72.57l-2.37,3.66Z"/>
      <circle class="cls-7" cx="18.64" cy="468.97" r="1.5"/>
      <circle class="cls-7" cx="12.63" cy="465.48" r="1.5"/>
      <circle class="cls-7" cx="77.13" cy="443.28" r="1.5"/>
      <circle class="cls-7" cx="67.18" cy="446.22" r="1.5"/>
      <circle class="cls-7" cx="27.98" cy="466.8" r="1.5"/>
      <circle class="cls-7" cx="20.22" cy="459.9" r="1.5"/>
      <circle class="cls-7" cx="27.69" cy="457.25" r="1.5"/>
      <circle class="cls-7" cx="72.18" cy="435.34" r="1.5"/>
      <circle class="cls-7" cx="72.18" cy="426.15" r="1.5"/>
      <circle class="cls-7" cx="34.83" cy="462.34" r="1.5"/>
      <circle class="cls-7" cx="41.52" cy="460.44" r="1.5"/>
      <circle class="cls-7" cx="38.86" cy="453.77" r="1.5"/>
      <circle class="cls-7" cx="32.35" cy="450.5" r="1.5"/>
      <circle class="cls-7" cx="60.14" cy="443.52" r="1.5"/>
      <circle class="cls-7" cx="62.65" cy="434.57" r="1.5"/>
      <circle class="cls-7" cx="81.18" cy="435.92" r="1.5"/>
      <circle class="cls-7" cx="92.49" cy="435.92" r="1.5"/>
      <circle class="cls-7" cx="82.82" cy="426.25" r="1.5"/>
      <circle class="cls-7" cx="79.1" cy="418.85" r="1.5"/>
      <circle class="cls-7" cx="88.56" cy="419.16" r="1.5"/>
      <circle class="cls-7" cx="93.12" cy="427.87" r="1.5"/>
      <circle class="cls-7" cx="98.12" cy="419.21" r="1.5"/>
      <circle class="cls-7" cx="104.08" cy="430.48" r="1.5"/>
      <circle class="cls-7" cx="107.44" cy="422.73" r="1.5"/>
      <circle class="cls-7" cx="90.82" cy="411.59" r="1.5"/>
      <circle class="cls-7" cx="100.79" cy="408.88" r="1.5"/>
      <circle class="cls-7" cx="110.09" cy="412.74" r="1.5"/>
      <circle class="cls-7" cx="114.81" cy="426.84" r="1.5"/>
      <circle class="cls-7" cx="117.33" cy="418.46" r="1.5"/>
      <circle class="cls-7" cx="121.52" cy="411.91" r="1.5"/>
      <circle class="cls-7" cx="125.63" cy="421.56" r="1.5"/>
      <circle class="cls-7" cx="129.37" cy="415.28" r="1.5"/>
      <circle class="cls-7" cx="124.88" cy="404.68" r="1.5"/>
      <circle class="cls-7" cx="118.66" cy="397.7" r="1.5"/>
      <circle class="cls-7" cx="119.74" cy="389.61" r="1.5"/>
      <circle class="cls-7" cx="127.79" cy="395.34" r="1.5"/>
      <circle class="cls-7" cx="132.84" cy="407.91" r="1.5"/>
      <circle class="cls-7" cx="135.6" cy="399.13" r="1.5"/>
      <circle class="cls-7" cx="145.56" cy="401.78" r="1.5"/>
      <circle class="cls-7" cx="138.56" cy="391.86" r="1.5"/>
      <circle class="cls-7" cx="150.76" cy="396.09" r="1.5"/>
      <circle class="cls-7" cx="154.34" cy="403.41" r="1.5"/>
      <circle class="cls-7" cx="162.32" cy="400.48" r="1.5"/>
      <circle class="cls-7" cx="161.99" cy="422.93" r="1.5"/>
      <circle class="cls-7" cx="171.27" cy="408.29" r="1.5"/>
      <circle class="cls-7" cx="168.68" cy="417.11" r="1.5"/>
      <circle class="cls-7" cx="161.55" cy="409.98" r="1.5"/>
      <circle class="cls-7" cx="182" cy="411.87" r="1.5"/>
      <circle class="cls-7" cx="177.77" cy="421.47" r="1.5"/>
      <circle class="cls-7" cx="170.62" cy="425.86" r="1.5"/>
      <circle class="cls-7" cx="154.51" cy="415.94" r="1.5"/>
      <circle class="cls-7" cx="159.06" cy="446.04" r="1.5"/>
      <circle class="cls-7" cx="165.08" cy="433.67" r="1.5"/>
      <circle class="cls-7" cx="175.33" cy="433.67" r="1.5"/>
      <circle class="cls-7" cx="168.66" cy="443.6" r="1.5"/>
      <circle class="cls-7" cx="154.18" cy="436.11" r="1.5"/>
      <circle class="cls-7" cx="146.37" cy="444.57" r="1.5"/>
      <circle class="cls-7" cx="139.05" cy="451.89" r="1.5"/>
      <circle class="cls-7" cx="151.74" cy="454.01" r="1.5"/>
      <circle class="cls-7" cx="164.43" cy="454.17" r="1.5"/>
      <circle class="cls-7" cx="158.74" cy="463.61" r="1.5"/>
      <circle class="cls-7" cx="143.93" cy="463.61" r="1.5"/>
      <circle class="cls-7" cx="151.42" cy="471.09" r="1.5"/>
      <circle class="cls-7" cx="134.49" cy="471.09" r="1.5"/>
      <circle class="cls-7" cx="142.96" cy="475.81" r="1.5"/>
      <circle class="cls-7" cx="150.85" cy="483.7" r="1.5"/>
      <circle class="cls-7" cx="142.14" cy="487.36" r="1.5"/>
      <circle class="cls-7" cx="133.03" cy="483.3" r="1.5"/>
      <circle class="cls-7" cx="132.05" cy="492.73" r="1.5"/>
      <circle class="cls-7" cx="143.93" cy="502.01" r="1.5"/>
      <circle class="cls-7" cx="132.54" cy="502.01" r="1.5"/>
      <circle class="cls-7" cx="125.46" cy="509.09" r="1.5"/>
      <circle class="cls-7" cx="137.59" cy="509.09" r="1.5"/>
      <circle class="cls-7" cx="131.4" cy="517.3" r="1.5"/>
      <circle class="cls-7" cx="122.13" cy="520.56" r="1.5"/>
      <circle class="cls-7" cx="130.35" cy="528.77" r="1.5"/>
      <circle class="cls-7" cx="120.01" cy="528.77" r="1.5"/>
      <circle class="cls-7" cx="125.22" cy="538.29" r="1.5"/>
      <circle class="cls-7" cx="117.57" cy="545.94" r="1.5"/>
      <circle class="cls-7" cx="119.36" cy="552.61" r="1.5"/>
      <circle class="cls-7" cx="149.95" cy="423.42" r="1.5"/>
      <circle class="cls-7" cx="142.96" cy="432.21" r="1.5"/>
      <circle class="cls-7" cx="139.8" cy="410.74" r="1.5"/>
      <circle class="cls-7" cx="129.48" cy="386.97" r="1.5"/>
      <circle class="cls-7" cx="107.92" cy="403.59" r="1.5"/>
      <circle class="cls-7" cx="110.52" cy="395.87" r="1.5"/>
      <circle class="cls-7" cx="116.64" cy="406" r="1.5"/>
      <circle class="cls-7" cx="51.35" cy="456.07" r="1.5"/>
      <circle class="cls-7" cx="53.77" cy="436.88" r="1.5"/>
      <circle class="cls-7" cx="41.87" cy="443.48" r="1.5"/>
      <circle class="cls-7" cx="50.72" cy="444.72" r="1.5"/>
      <circle class="cls-7" cx="46.6" cy="450.75" r="1.5"/>
      <circle class="cls-7" cx="57.42" cy="452.85" r="1.5"/>
    </g>
  </g>
</svg>
