<svg xmlns="http://www.w3.org/2000/svg" viewBox="0 0 286.28 530.51">
  <defs>
    <style>
      .cls-1{fill:#2d9ed5;fill-rule:evenodd;}
      .cls-2{fill:#3d1e88;}
      .cls-3{fill:#2e478f;}
      .cls-4{fill:#f99e1c;}
      .cls-5{fill:#383c45;}
      .cls-6{fill:#a51d32;}
      .cls-7{fill:#fff;}
      .cls-8{fill:#29b67b;}
    </style>
  </defs>
  <title>Asset 27</title>
  <g id="Layer_2" data-name="Layer 2">
    <g id="Layer_1-2" data-name="Layer 1">
      <path class="cls-1"
            d="M119.08,287.43c24.72,0,44.29,19.79,44.29,44.78S143.8,377,119.08,377,74.79,357.2,74.79,332.21,94.36,287.43,119.08,287.43Zm-1-72.83c65.26,0,118.09,53.18,118.09,118.86,0,56.3-80.8,132.41-118.09,197.05C80.8,465.87,0,389.76,0,333.46,0,267.78,52.83,214.6,118.1,214.6Z"/>
      <path class="cls-2"
            d="M204.94,393.05l18.2,3.9s25.34-86.48,12.2-131.23c-8.73-29.75-21.26-72.8-75.16-98.64L72.3,170.14s-6.74,57.72,74.13,57.72S204.94,393.05,204.94,393.05Z"/>
      <rect class="cls-3" x="247.31" y="30.45" width="4.84" height="40.95"
            transform="translate(13.48 146.55) rotate(-33.56)"/>
      <path class="cls-4"
            d="M251.32,46.43,248,48c-4.74-4.3-10.11,0-10.11,0l-7.53,13.36,10.53,6s8.45-3.45,9.9-6C250.8,61.33,254.91,53.57,251.32,46.43Z"/>
      <polygon class="cls-3" points="259.13 69.23 263.59 71.75 262.9 66.73 259.13 69.23"/>
      <path class="cls-4"
            d="M174.89,25.67c-5-18.77-33.09-1.12-36.12,1.26-8.73,6.87,2.17,12.89,2.17,12.89v0l.35-.31s1,10.73-10,19.58a8.19,8.19,0,0,0,1.18,2.72c1.66,4.82,6.76,13.76,21.32,10.87l5.15-12C180.41,60.77,174.89,25.67,174.89,25.67Z"/>
      <path class="cls-5"
            d="M131.26,59S71.9,76,72.3,170.14l96.88-3.37-9.25-51.33,30.4-.49L240.9,67.28l-10.53-6-48.88,30.4-27.75-19S138.38,73.94,131.26,59Z"/>
      <path class="cls-6" d="M169.18,258.26l-17,2.21,8.18,51.71s7.44,8,8.79-2.87,3.07-35,3.07-35Z"/>
      <path class="cls-6" d="M205.52,389.78l-5.7,16.49,47,19.31s10.74-2.12,2.18-9-26-20.7-26-20.7Z"/>
      <path class="cls-6"
            d="M128.72,38.78c-2.27-.53-4.51-2.26-3.65-7.35,0,0,.8-3.45,2.41-3.88s-3.75-5.22,3.21-7.78c0,0-2.94-7.48,3.22-8.65,0,0,4-10.37,14.86-6.48,0,0,7.64-9.51,16.48-1.3,0,0,7.23-2.59,9.64,4.32,0,0,6,3.46,3.22,7.78,0,0,4.41,1.73,1.2,5.62,0,0-1.61,6.05-6.43.43,0,0-3.21,2.6-6,0-5.62,3-8.43.44-12.45,2.17a36.54,36.54,0,0,1-9.64,2.16l-3,3.17s-5.05-2.65-4.78,3.09,4.27,7.45,4.27,7.45S135.2,52.44,128.72,38.78Z"/>
      <circle class="cls-7" cx="158.72" cy="33.8" r="1.61"/>
      <circle class="cls-7" cx="171.34" cy="31.79" r="1.61"/>
      <path class="cls-2"
            d="M275.39,205.31C232,168.5,169.18,166.77,169.18,166.77L72.3,170.14s116,49.69,145.81,50.65,17.8,15.67,17.8,15.67l-66.73,21.8,3.07,16.06c95.05,4.87,112.14-27.07,114-46.13C286.56,217.32,279,208.78,275.39,205.31Z"/>
      <polygon class="cls-8" points="238.5 69.56 228.31 62.67 229.42 61.9 239.42 68.61 238.5 69.56"/>
    </g>
  </g>
</svg>
