<?xml version="1.0" encoding="utf-8"?>
<!-- Generator: Adobe Illustrator 23.0.6, SVG Export Plug-In . SVG Version: 6.00 Build 0)  -->
<svg version="1.1" id="Layer_1" xmlns="http://www.w3.org/2000/svg" xmlns:xlink="http://www.w3.org/1999/xlink" x="0px"
     y="0px"
     viewBox="0 0 679.8 490.8" style="enable-background:new 0 0 679.8 490.8;" xml:space="preserve">
<style type="text/css">
	.st0{clip-path:url(#SVGID_2_);}
	.st1{clip-path:url(#SVGID_4_);fill:#EAF5F6;}
	.st2{fill:none;}
	.st3{opacity:0.5;}
	.st4{fill-rule:evenodd;clip-rule:evenodd;fill:#AADDDE;}
	.st5{fill-rule:evenodd;clip-rule:evenodd;fill:#D6EEED;}
	.st6{clip-path:url(#SVGID_6_);}
	.st7{fill:#D6EEED;}
	.st8{fill-rule:evenodd;clip-rule:evenodd;fill:#ABDDDE;}
	.st9{clip-path:url(#SVGID_8_);}
	.st10{fill:#ABDDDE;}
	.st11{clip-path:url(#SVGID_10_);}
	.st12{clip-path:url(#SVGID_12_);}
	.st13{clip-path:url(#SVGID_14_);}
	.st14{clip-path:url(#SVGID_16_);}
	.st15{clip-path:url(#SVGID_18_);}
	.st16{fill:#AADDDE;}
	.st17{clip-path:url(#SVGID_20_);}
	.st18{clip-path:url(#SVGID_22_);}
	.st19{clip-path:url(#SVGID_24_);}
	.st20{clip-path:url(#SVGID_26_);}
	.st21{clip-path:url(#SVGID_28_);}
	.st22{clip-path:url(#SVGID_30_);}
	.st23{clip-path:url(#SVGID_32_);}
	.st24{clip-path:url(#SVGID_34_);}
	.st25{clip-path:url(#SVGID_36_);}
	.st26{clip-path:url(#SVGID_38_);}
	.st27{clip-path:url(#SVGID_40_);}
	.st28{clip-path:url(#SVGID_42_);}
	.st29{clip-path:url(#SVGID_44_);}
	.st30{clip-path:url(#SVGID_46_);}
	.st31{clip-path:url(#SVGID_48_);}
	.st32{clip-path:url(#SVGID_50_);}
	.st33{clip-path:url(#SVGID_52_);}
	.st34{clip-path:url(#SVGID_54_);}
	.st35{clip-path:url(#SVGID_56_);}
	.st36{clip-path:url(#SVGID_58_);}
	.st37{clip-path:url(#SVGID_60_);}
	.st38{clip-path:url(#SVGID_62_);}
	.st39{clip-path:url(#SVGID_64_);}
	.st40{clip-path:url(#SVGID_66_);}
	.st41{clip-path:url(#SVGID_68_);}
	.st42{clip-path:url(#SVGID_70_);}
	.st43{clip-path:url(#SVGID_72_);}
	.st44{clip-path:url(#SVGID_74_);}
	.st45{clip-path:url(#SVGID_76_);}
	.st46{clip-path:url(#SVGID_78_);}
	.st47{clip-path:url(#SVGID_80_);}
	.st48{clip-path:url(#SVGID_82_);}
	.st49{clip-path:url(#SVGID_84_);}
	.st50{clip-path:url(#SVGID_86_);}
	.st51{clip-path:url(#SVGID_88_);}
	.st52{opacity:0.5;fill-rule:evenodd;clip-rule:evenodd;fill:#D6EEED;enable-background:new    ;}
	.st53{opacity:0.5;fill:#D6EEED;enable-background:new    ;}
	.st54{fill-rule:evenodd;clip-rule:evenodd;fill:#EAF5F6;}
	.st55{clip-path:url(#SVGID_90_);}
	.st56{clip-path:url(#SVGID_92_);fill:#EAF5F6;}
	.st57{fill-rule:evenodd;clip-rule:evenodd;fill:#DAECED;}
	.st58{fill:#EAF5F6;}
</style>
  <g>
	<defs>
		<polygon id="SVGID_1_" points="646.1,367.7 644.2,351 580.6,345.8 579.1,361 		"/>
	</defs>
    <use xlink:href="#SVGID_1_" style="overflow:visible;fill-rule:evenodd;clip-rule:evenodd;fill:#EAF5F6;"/>
    <clipPath id="SVGID_2_">
		<use xlink:href="#SVGID_1_" style="overflow:visible;"/>
	</clipPath>
    <g class="st0">
		<defs>

				<rect id="SVGID_3_" x="438.9" y="130.2"
              transform="matrix(9.927677e-02 -0.9951 0.9951 9.927677e-02 222.4026 944.1312)" width="387.6"
              height="438"/>
		</defs>
      <use xlink:href="#SVGID_3_" style="overflow:visible;fill:#EAF5F6;"/>
      <clipPath id="SVGID_4_">
			<use xlink:href="#SVGID_3_" style="overflow:visible;"/>
		</clipPath>

      <rect x="602" y="317.6" transform="matrix(9.927677e-02 -0.9951 0.9951 9.927677e-02 198.0806 931.1722)" class="st1"
            width="22.7" height="77.1"/>
	</g>
</g>
  <g>
	<g id="Layer_1-2">
		<polygon class="st2" points="386.3,256.3 388.8,274.9 435.6,273.7 435.6,256.3 		"/>
    <polygon class="st2" points="388.3,352.9 382.4,372.4 406.1,374.4 408.2,356.8 		"/>
    <polygon class="st2" points="465.4,365.6 476.1,365.6 478.4,386 463.1,384.3 		"/>
    <g class="st3">
			<polygon class="st4" points="99.4,36.9 99.4,54.5 138.2,54.5 138.2,31.8 			"/>
      <polygon class="st5" points="97.4,59 125.9,59 125.9,182.3 103.1,182.3 			"/>
      <g>
				<defs>
					<polygon id="SVGID_5_" points="97.4,59 125.9,59 125.9,182.3 103.1,182.3 					"/>
				</defs>
        <clipPath id="SVGID_6_">
					<use xlink:href="#SVGID_5_" style="overflow:visible;"/>
				</clipPath>
        <g class="st6">
					<rect x="30" y="26.5" class="st7" width="458.1" height="464.3"/>
				</g>
			</g>
      <rect x="104.4" y="187.6" class="st7" width="22.5" height="68.8"/>
      <polygon class="st5" points="147.1,31.8 161.6,31.8 147.1,257.2 131,257.2 131,59.6 147.1,59.6 			"/>
      <polygon class="st5" points="85.1,115 28,115 28,139.9 85.1,135.1 			"/>
      <polygon class="st5" points="28,143.7 85.1,139.9 85.1,150.3 28,155.8 			"/>
      <polygon class="st8" points="28,165 85.1,157.3 90.2,195.9 28,195.9 			"/>
      <polygon class="st8" points="28,200.4 64.7,200.4 64.7,212.8 56.6,212.8 56.6,226.2 28,226.2 			"/>
      <rect x="28" y="229.2" class="st7" width="62.2" height="12.1"/>
      <polygon class="st8" points="28,275.3 90.2,275.3 90.2,295.7 28,291.2 			"/>
      <g>
				<defs>
					<polygon id="SVGID_7_" points="28,275.3 90.2,275.3 90.2,295.7 28,291.2 					"/>
				</defs>
        <clipPath id="SVGID_8_">
					<use xlink:href="#SVGID_7_" style="overflow:visible;"/>
				</clipPath>
        <g class="st9">
					<rect x="30" y="26.5" class="st10" width="458.1" height="464.3"/>
				</g>
			</g>
      <polyline class="st5" points="28,296.5 28,310.9 59.6,310.9 59.6,296.5 			"/>
      <polygon class="st5" points="66.5,296.9 66.5,312 89,318.1 89,298.7 			"/>
      <path class="st5"
            d="M28,313.1l33.3,1.1l28.9,5.6c-9.9,12.8-18.3,20.4-25.3,22.8c-7,2.4-18.8,17.3-35.3,44.5L28,313.1z"/>
      <g>
				<defs>
					<path id="SVGID_9_"
                d="M28,313.1l33.3,1.1l28.9,5.6c-9.9,12.8-18.3,20.4-25.3,22.8c-7,2.4-18.8,17.3-35.3,44.5L28,313.1z"/>
				</defs>
        <clipPath id="SVGID_10_">
					<use xlink:href="#SVGID_9_" style="overflow:visible;"/>
				</clipPath>
        <g class="st11">
					<rect x="30" y="26.5" class="st7" width="458.1" height="464.3"/>
				</g>
			</g>
      <polygon class="st8" points="87,334.3 50.5,370.8 28.6,398.7 27,463.6 68.1,391.9 106.5,339.2 			"/>
      <polygon class="st5" points="105.1,275.2 143.3,273 111.8,331.3 95.3,329 			"/>
      <g>
				<defs>
					<polygon id="SVGID_11_" points="105.1,275.2 143.3,273 111.8,331.3 95.3,329 					"/>
				</defs>
        <clipPath id="SVGID_12_">
					<use xlink:href="#SVGID_11_" style="overflow:visible;"/>
				</clipPath>
        <g class="st12">
					<rect x="30" y="26.5" class="st7" width="458.1" height="464.3"/>
          <g>
						<defs>
							<rect id="SVGID_13_" x="30" y="26.5" width="458.1" height="464.3"/>
						</defs>
            <clipPath id="SVGID_14_">
							<use xlink:href="#SVGID_13_" style="overflow:visible;"/>
						</clipPath>
            <g class="st13">
							<rect x="90.2" y="269.3" class="st7" width="58.2" height="65.8"/>
						</g>
					</g>
				</g>
			</g>
      <polygon class="st5" points="369,268.5 363.9,299.3 407.8,314.6 407.8,271.1 			"/>
      <g>
				<defs>
					<polygon id="SVGID_15_" points="369,268.5 363.9,299.3 407.8,314.6 407.8,271.1 					"/>
				</defs>
        <clipPath id="SVGID_16_">
					<use xlink:href="#SVGID_15_" style="overflow:visible;"/>
				</clipPath>
        <g class="st14">
					<rect x="90.5" y="26.5" class="st7" width="329" height="464.3"/>
          <g>
						<defs>
							<rect id="SVGID_17_" x="90.5" y="26.5" width="329" height="464.3"/>
						</defs>
            <clipPath id="SVGID_18_">
							<use xlink:href="#SVGID_17_" style="overflow:visible;"/>
						</clipPath>
            <g class="st15">
							<rect x="360.2" y="264.7" class="st16" width="51.3" height="53.7"/>
						</g>
					</g>
				</g>
			</g>
      <polygon class="st8" points="363.5,304.8 358.7,328.4 368.3,331.3 368.3,309.5 			"/>
      <g>
				<defs>
					<polygon id="SVGID_19_" points="363.5,304.8 358.7,328.4 368.3,331.3 368.3,309.5 					"/>
				</defs>
        <clipPath id="SVGID_20_">
					<use xlink:href="#SVGID_19_" style="overflow:visible;"/>
				</clipPath>
        <g class="st17">
					<rect x="90.5" y="26.5" class="st10" width="329" height="464.3"/>
          <g>
						<defs>
							<rect id="SVGID_21_" x="90.5" y="26.5" width="329" height="464.3"/>
						</defs>
            <clipPath id="SVGID_22_">
							<use xlink:href="#SVGID_21_" style="overflow:visible;"/>
						</clipPath>
            <g class="st18">
							<rect x="355.1" y="301" class="st10" width="16.9" height="34"/>
						</g>
					</g>
				</g>
			</g>
      <polygon class="st8" points="372.7,309.3 372.7,332.5 381.8,335 385.9,314.4 			"/>
      <g>
				<defs>
					<polygon id="SVGID_23_" points="372.7,309.3 372.7,332.5 381.8,335 385.9,314.4 					"/>
				</defs>
        <clipPath id="SVGID_24_">
					<use xlink:href="#SVGID_23_" style="overflow:visible;"/>
				</clipPath>
        <g class="st19">
					<rect x="90.5" y="26.5" class="st10" width="329" height="464.3"/>
          <g>
						<defs>
							<rect id="SVGID_25_" x="90.5" y="26.5" width="329" height="464.3"/>
						</defs>
            <clipPath id="SVGID_26_">
							<use xlink:href="#SVGID_25_" style="overflow:visible;"/>
						</clipPath>
            <g class="st20">
							<rect x="369" y="305.6" class="st10" width="20.5" height="33.3"/>
						</g>
					</g>
				</g>
			</g>
      <polygon class="st5" points="358.5,336.6 380.7,340.8 375.3,373.6 355.1,369 			"/>
      <g>
				<defs>
					<polygon id="SVGID_27_" points="358.5,336.6 380.7,340.8 375.3,373.6 355.1,369 					"/>
				</defs>
        <clipPath id="SVGID_28_">
					<use xlink:href="#SVGID_27_" style="overflow:visible;"/>
				</clipPath>
        <g class="st21">
					<rect x="90.5" y="26.5" class="st7" width="329" height="464.3"/>
          <g>
						<defs>
							<rect id="SVGID_29_" x="90.5" y="26.5" width="329" height="464.3"/>
						</defs>
            <clipPath id="SVGID_30_">
							<use xlink:href="#SVGID_29_" style="overflow:visible;"/>
						</clipPath>
            <g class="st22">
							<rect x="351.4" y="332.8" class="st7" width="33" height="44.6"/>
						</g>
					</g>
				</g>
			</g>
      <polygon class="st5" points="389.6,317.7 380.7,373.5 393.6,375.9 399.4,346.8 414.4,344.3 407.2,318.7 			"/>
      <g>
				<defs>
					<polygon id="SVGID_31_"
                   points="389.6,317.7 380.7,373.5 393.6,375.9 399.4,346.8 414.4,344.3 407.2,318.7 					"/>
				</defs>
        <clipPath id="SVGID_32_">
					<use xlink:href="#SVGID_31_" style="overflow:visible;"/>
				</clipPath>
        <g class="st23">
					<rect x="90.5" y="26.5" class="st7" width="329" height="464.3"/>
          <g>
						<defs>
							<rect id="SVGID_33_" x="90.5" y="26.5" width="329" height="464.3"/>
						</defs>
            <clipPath id="SVGID_34_">
							<use xlink:href="#SVGID_33_" style="overflow:visible;"/>
						</clipPath>
            <g class="st24">
							<rect x="377.1" y="313.9" class="st16" width="41" height="65.8"/>
						</g>
					</g>
				</g>
			</g>
      <polygon class="st5" points="220.7,30 231.3,30 234.3,139.2 220.7,137.4 			"/>
      <polygon class="st5" points="220.4,143 234.2,143 237.1,206.5 218,206.5 			"/>
      <polygon class="st5" points="205.1,210.3 228.7,210.3 234.4,257.9 199.9,257.9 			"/>
      <path class="st5" d="M242.7,25.9h12c1,11.9,3.1,17.9,6.2,17.9s3.5,8.2,1.1,24.4H238L242.7,25.9z"/>
      <rect x="268.8" y="63.4" class="st7" width="23.2" height="6.7"/>
      <polygon class="st5" points="293.2,63.5 293.2,69.6 310.8,69.6 310.8,61.3 			"/>
      <polygon class="st5" points="314.8,45.4 314.8,71.9 339,71.9 339,46.5 			"/>
      <path class="st5" d="M236.5,71.6v34.3l75.1,7.3c3-25.7,2.2-39-2.5-40.1S280.2,71.6,236.5,71.6z"/>
      <polygon class="st5" points="315.8,74.9 317,82.3 319.5,87 338.5,87 338.5,74.9 			"/>
      <polygon class="st5" points="316.1,89.3 314.8,113.6 335.8,116.5 337.5,89.3 			"/>
      <polygon class="st5" points="236.6,112 238,138.6 294.4,143 296.7,119.2 			"/>
      <polygon class="st5" points="238.4,143 243.8,210.3 299.2,202.5 294.5,145.6 			"/>
      <polygon class="st5" points="238.9,213.1 270.2,210.1 271.9,235.1 241.6,235.1 			"/>
      <polygon class="st5" points="241.4,238.3 245.8,257.9 326.4,256.6 326.4,238.3 			"/>
      <g>
				<defs>
					<polygon id="SVGID_35_" points="241.4,238.3 245.8,257.9 326.4,256.6 326.4,238.3 					"/>
				</defs>
        <clipPath id="SVGID_36_">
					<use xlink:href="#SVGID_35_" style="overflow:visible;"/>
				</clipPath>
        <g class="st25">
					<rect x="-15.9" y="26.5" class="st7" width="552.9" height="464.3"/>
          <g>
						<defs>
							<rect id="SVGID_37_" x="-15.9" y="26.5" width="552.9" height="464.3"/>
						</defs>
            <clipPath id="SVGID_38_">
							<use xlink:href="#SVGID_37_" style="overflow:visible;"/>
						</clipPath>
            <g class="st26">
							<rect x="235.2" y="234.5" class="st7" width="97.3" height="27.2"/>
						</g>
					</g>
				</g>
			</g>
      <polygon class="st5" points="273.6,208.8 275.4,233.7 299.2,233.7 299.2,206.5 			"/>
      <rect x="298.7" y="238.3" class="st7" width="27.1" height="18.9"/>
      <polygon class="st5" points="303.8,185.3 313.3,177.6 330.9,177.6 326.2,235.8 303.8,234.8 			"/>
      <polygon class="st5" points="298.7,149.8 309.6,151.7 307.9,175.4 299.7,181.5 			"/>
      <polygon class="st5" points="314.2,152.8 314.2,172.6 331.8,175.5 331.8,152.8 			"/>
      <polygon class="st5" points="443.5,265.7 429.7,265.9 426,202.4 445.1,202.2 			"/>
      <polygon class="st4" points="454.6,198.2 431,198.5 424.7,151 459.2,150.5 			"/>
      <polygon class="st4" points="425.5,266 419.2,198.7 363.9,207.1 369.4,264 			"/>
      <polygon class="st5" points="424.1,195.8 392.9,199.2 390.8,174.3 421.2,173.9 			"/>
      <polygon class="st5" points="421.3,170.7 416.7,151.1 336.1,153.4 336.4,171.7 			"/>
      <g>
				<defs>
					<polygon id="SVGID_39_" points="421.3,170.7 416.7,151.1 336.1,153.4 336.4,171.7 					"/>
				</defs>
        <clipPath id="SVGID_40_">
					<use xlink:href="#SVGID_39_" style="overflow:visible;"/>
				</clipPath>
        <g class="st27">

						<rect x="125.6" y="-81.6" transform="matrix(0.9999 -1.204248e-02 1.204248e-02 0.9999 -1.7835 4.8519)"
                  class="st7" width="552.9" height="464.3"/>
          <g>
						<defs>

								<rect id="SVGID_41_" x="125.6" y="-81.6"
                      transform="matrix(0.9999 -1.204248e-02 1.204248e-02 0.9999 -1.7835 4.8519)" width="552.9"
                      height="464.3"/>
						</defs>
            <clipPath id="SVGID_42_">
							<use xlink:href="#SVGID_41_" style="overflow:visible;"/>
						</clipPath>
            <g class="st28">

								<rect x="330.1" y="147.8" transform="matrix(0.9999 -1.204248e-02 1.204248e-02 0.9999 -1.916 4.5725)"
                      class="st7" width="97.3" height="27.2"/>
						</g>
					</g>
				</g>
			</g>
      <polygon class="st4" points="389.5,200.6 387.4,175.7 363.6,175.9 363.9,203.2 			"/>

      <rect x="336.8" y="152.7" transform="matrix(0.9999 -1.221700e-02 1.221700e-02 0.9999 -1.9543 4.293)" class="st7"
            width="27.1" height="18.9"/>
      <polygon class="st5" points="359.6,224.4 350.2,232.2 332.6,232.4 336.6,174.2 359,174.9 			"/>
      <polygon class="st5" points="365.2,259.9 354.1,258.1 355.6,234.4 363.7,228.1 			"/>
      <polygon class="st5" points="349.6,257 349.3,237.2 331.7,234.6 332,257.2 			"/>
      <polygon class="st5" points="301.4,118.9 299.1,147 311,148.4 312.8,133.7 332.8,133.7 334.2,121.5 			"/>
      <polygon class="st5" points="316.1,137.3 314.8,149.4 330.8,149.4 332.4,137.3 			"/>
      <polygon class="st5" points="180.8,350.2 137.4,464.7 386.3,486.4 393.2,380.8 			"/>
      <g>
				<defs>
					<polygon id="SVGID_43_" points="180.8,350.2 137.4,464.7 386.3,486.4 393.2,380.8 					"/>
				</defs>
        <clipPath id="SVGID_44_">
					<use xlink:href="#SVGID_43_" style="overflow:visible;"/>
				</clipPath>
        <g class="st29">
					<rect x="94.9" y="36.8" class="st7" width="298.3" height="449.6"/>
				</g>
			</g>
      <polygon class="st5" points="184.3,344.5 224.6,350.9 235.6,269.3 210,274 			"/>
      <g>
				<defs>
					<polygon id="SVGID_45_" points="184.3,344.5 224.6,350.9 235.6,269.3 210,274 					"/>
				</defs>
        <clipPath id="SVGID_46_">
					<use xlink:href="#SVGID_45_" style="overflow:visible;"/>
				</clipPath>
        <g class="st30">
					<rect x="90.5" y="26.5" class="st7" width="329" height="464.3"/>
          <g>
						<defs>
							<rect id="SVGID_47_" x="90.5" y="26.5" width="329" height="464.3"/>
						</defs>
            <clipPath id="SVGID_48_">
							<use xlink:href="#SVGID_47_" style="overflow:visible;"/>
						</clipPath>
            <g class="st31">
							<rect x="180.7" y="265.5" class="st7" width="58.6" height="89.2"/>
						</g>
					</g>
				</g>
			</g>
      <path class="st5" d="M244.7,269.3l-5.4,34h17.1c1.1-15.9,9.7-23.9,25.7-23.9h40v-10.1L244.7,269.3z"/>
      <g>
				<defs>
					<path id="SVGID_49_" d="M244.7,269.3l-5.4,34h17.1c1.1-15.9,9.7-23.9,25.7-23.9h40v-10.1L244.7,269.3z"/>
				</defs>
        <clipPath id="SVGID_50_">
					<use xlink:href="#SVGID_49_" style="overflow:visible;"/>
				</clipPath>
        <g class="st32">
					<rect x="90.5" y="26.5" class="st7" width="329" height="464.3"/>
          <g>
						<defs>
							<rect id="SVGID_51_" x="90.5" y="26.5" width="329" height="464.3"/>
						</defs>
            <clipPath id="SVGID_52_">
							<use xlink:href="#SVGID_51_" style="overflow:visible;"/>
						</clipPath>
            <g class="st33">
							<rect x="235.6" y="265.5" class="st7" width="90.1" height="41.6"/>
						</g>
					</g>
				</g>
			</g>
      <polygon class="st5" points="303,285.9 299.2,310.9 261.3,303.4 			"/>
      <g>
				<defs>
					<polygon id="SVGID_53_" points="303,285.9 299.2,310.9 261.3,303.4 					"/>
				</defs>
        <clipPath id="SVGID_54_">
					<use xlink:href="#SVGID_53_" style="overflow:visible;"/>
				</clipPath>
        <g class="st34">
					<rect x="90.5" y="26.5" class="st7" width="329" height="464.3"/>
          <g>
						<defs>
							<rect id="SVGID_55_" x="90.5" y="26.5" width="329" height="464.3"/>
						</defs>
            <clipPath id="SVGID_56_">
							<use xlink:href="#SVGID_55_" style="overflow:visible;"/>
						</clipPath>
            <g class="st35">
							<rect x="257.6" y="282.1" class="st7" width="49.1" height="32.5"/>
						</g>
					</g>
				</g>
			</g>
      <polygon class="st5" points="306.3,285.9 301.6,313.1 316.6,313.1 323.6,285.9 			"/>
      <g>
				<defs>
					<polygon id="SVGID_57_" points="306.3,285.9 301.6,313.1 316.6,313.1 323.6,285.9 					"/>
				</defs>
        <clipPath id="SVGID_58_">
					<use xlink:href="#SVGID_57_" style="overflow:visible;"/>
				</clipPath>
        <g class="st36">
					<rect x="90.5" y="26.5" class="st7" width="329" height="464.3"/>
          <g>
						<defs>
							<rect id="SVGID_59_" x="90.5" y="26.5" width="329" height="464.3"/>
						</defs>
            <clipPath id="SVGID_60_">
							<use xlink:href="#SVGID_59_" style="overflow:visible;"/>
						</clipPath>
            <g class="st37">
							<rect x="297.9" y="282.1" class="st7" width="29.3" height="34.8"/>
						</g>
					</g>
				</g>
			</g>
      <polygon class="st8" points="326.5,269.3 326.5,281.7 360.9,285.1 360.9,269.3 			"/>
      <g>
				<defs>
					<polygon id="SVGID_61_" points="326.5,269.3 326.5,281.7 360.9,285.1 360.9,269.3 					"/>
				</defs>
        <clipPath id="SVGID_62_">
					<use xlink:href="#SVGID_61_" style="overflow:visible;"/>
				</clipPath>
        <g class="st38">
					<rect x="90.5" y="26.5" class="st10" width="329" height="464.3"/>
          <g>
						<defs>
							<rect id="SVGID_63_" x="90.5" y="26.5" width="329" height="464.3"/>
						</defs>
            <clipPath id="SVGID_64_">
							<use xlink:href="#SVGID_63_" style="overflow:visible;"/>
						</clipPath>
            <g class="st39">
							<rect x="322.8" y="265.5" class="st10" width="41.8" height="23.4"/>
						</g>
					</g>
				</g>
			</g>
      <polygon class="st5" points="326.5,285.9 322.8,312.8 337,312.8 337,328.2 353.3,328.2 360.2,289.3 			"/>
      <g>
				<defs>
					<polygon id="SVGID_65_"
                   points="326.5,285.9 322.8,312.8 337,312.8 337,328.2 353.3,328.2 360.2,289.3 					"/>
				</defs>
        <clipPath id="SVGID_66_">
					<use xlink:href="#SVGID_65_" style="overflow:visible;"/>
				</clipPath>
        <g class="st40">
					<rect x="90.5" y="26.5" class="st7" width="329" height="464.3"/>
          <g>
						<defs>
							<rect id="SVGID_67_" x="90.5" y="26.5" width="329" height="464.3"/>
						</defs>
            <clipPath id="SVGID_68_">
							<use xlink:href="#SVGID_67_" style="overflow:visible;"/>
						</clipPath>
            <g class="st41">
							<rect x="319.2" y="282.1" class="st7" width="44.7" height="49.9"/>
						</g>
					</g>
				</g>
			</g>
      <polygon class="st5" points="259.8,296.5 295,284.4 269.9,284.4 			"/>
      <g>
				<defs>
					<polygon id="SVGID_69_" points="259.8,296.5 295,284.4 269.9,284.4 					"/>
				</defs>
        <clipPath id="SVGID_70_">
					<use xlink:href="#SVGID_69_" style="overflow:visible;"/>
				</clipPath>
        <g class="st42">
					<rect x="90.5" y="26.5" class="st7" width="329" height="464.3"/>
          <g>
						<defs>
							<rect id="SVGID_71_" x="90.5" y="26.5" width="329" height="464.3"/>
						</defs>
            <clipPath id="SVGID_72_">
							<use xlink:href="#SVGID_71_" style="overflow:visible;"/>
						</clipPath>
            <g class="st43">
							<rect x="256.1" y="280.6" class="st7" width="42.5" height="19.7"/>
						</g>
					</g>
				</g>
			</g>
      <polygon class="st5" points="238.3,307.1 232,350 260.2,355.5 269.3,310.2 			"/>
      <g>
				<defs>
					<polygon id="SVGID_73_" points="238.3,307.1 232,350 260.2,355.5 269.3,310.2 					"/>
				</defs>
        <clipPath id="SVGID_74_">
					<use xlink:href="#SVGID_73_" style="overflow:visible;"/>
				</clipPath>
        <g class="st44">
					<rect x="90.5" y="26.5" class="st7" width="329" height="464.3"/>
          <g>
						<defs>
							<rect id="SVGID_75_" x="90.5" y="26.5" width="329" height="464.3"/>
						</defs>
            <clipPath id="SVGID_76_">
							<use xlink:href="#SVGID_75_" style="overflow:visible;"/>
						</clipPath>
            <g class="st45">
							<rect x="228.3" y="303.3" class="st7" width="44.7" height="56"/>
						</g>
					</g>
				</g>
			</g>
      <polygon class="st5" points="272.9,313.1 265.7,356.1 281.9,358.5 289.6,335.8 313.6,339 314.8,319.1 			"/>
      <g>
				<defs>
					<polygon id="SVGID_77_"
                   points="272.9,313.1 265.7,356.1 281.9,358.5 289.6,335.8 313.6,339 314.8,319.1 					"/>
				</defs>
        <clipPath id="SVGID_78_">
					<use xlink:href="#SVGID_77_" style="overflow:visible;"/>
				</clipPath>
        <g class="st46">
					<rect x="90.5" y="26.5" class="st7" width="329" height="464.3"/>
          <g>
						<defs>
							<rect id="SVGID_79_" x="90.5" y="26.5" width="329" height="464.3"/>
						</defs>
            <clipPath id="SVGID_80_">
							<use xlink:href="#SVGID_79_" style="overflow:visible;"/>
						</clipPath>
            <g class="st47">
							<rect x="262" y="309.3" class="st7" width="56.4" height="52.9"/>
						</g>
					</g>
				</g>
			</g>
      <polygon class="st5" points="319.9,315.4 319.9,327.5 333.1,327.5 333.1,319.2 			"/>
      <g>
				<defs>
					<polygon id="SVGID_81_" points="319.9,315.4 319.9,327.5 333.1,327.5 333.1,319.2 					"/>
				</defs>
        <clipPath id="SVGID_82_">
					<use xlink:href="#SVGID_81_" style="overflow:visible;"/>
				</clipPath>
        <g class="st48">
					<rect x="90.5" y="26.5" class="st7" width="329" height="464.3"/>
          <g>
						<defs>
							<rect id="SVGID_83_" x="90.5" y="26.5" width="329" height="464.3"/>
						</defs>
            <clipPath id="SVGID_84_">
							<use xlink:href="#SVGID_83_" style="overflow:visible;"/>
						</clipPath>
            <g class="st49">
							<rect x="316.2" y="311.6" class="st7" width="20.5" height="19.7"/>
						</g>
					</g>
				</g>
			</g>
      <polygon class="st5" points="315.9,332 352.9,333.2 348.3,368.3 315.5,362.2 			"/>
      <g>
				<defs>
					<polygon id="SVGID_85_" points="315.9,332 352.9,333.2 348.3,368.3 315.5,362.2 					"/>
				</defs>
        <clipPath id="SVGID_86_">
					<use xlink:href="#SVGID_85_" style="overflow:visible;"/>
				</clipPath>
        <g class="st50">
					<rect x="90.5" y="26.5" class="st7" width="329" height="464.3"/>
          <g>
						<defs>
							<rect id="SVGID_87_" x="90.5" y="26.5" width="329" height="464.3"/>
						</defs>
            <clipPath id="SVGID_88_">
							<use xlink:href="#SVGID_87_" style="overflow:visible;"/>
						</clipPath>
            <g class="st51">
							<rect x="311.8" y="328.2" class="st7" width="44.7" height="43.9"/>
						</g>
					</g>
				</g>
			</g>
      <path class="st5" d="M269.3,44.7c1.6,9.3,1.6,14.6,0,15.9s12,0.8,41.1-1.5V44.7H269.3z"/>
      <polyline class="st5" points="91.4,265.2 91.4,249.1 29.1,249.1 29.1,268.1 			"/>
		</g>
    <g class="st3">
			<polygon class="st5" points="454.6,205.1 498.4,203.7 498.7,235.1 452.4,237.4 			"/>
      <polygon class="st5" points="582.6,200.4 583.1,231.8 504.6,234 504.2,202.6 			"/>
      <path class="st5" d="M452,261.5c0,0,124.6-4.6,129.2-1.5l-1.2-22.5l-127.2,4.6L452,261.5z"/>
      <path class="st4"
            d="M454.3,324l0.8-57.5l76.4-3.3l2.1,32c0,0-19.1-1.2-32-1.6s-21.6-0.3-18.2,8.3S488.9,325.4,454.3,324z"/>
      <polygon class="st5" points="535.9,264.8 558,263.1 558.3,279.4 555.8,280.9 557.2,296.2 538.9,297.7 			"/>
      <polygon class="st5" points="565.3,263.1 580.7,264.6 580.7,285.6 560.2,283.2 			"/>
      <polygon class="st5" points="560.6,287.8 561.5,297.4 578.6,296.1 578.7,288.8 			"/>
      <polygon class="st5" points="491,302.1 504,301.7 505.3,315.8 491.2,316.7 			"/>
      <polygon class="st5" points="507.9,302.3 509.1,315.5 536.2,314.3 535.4,300.7 			"/>
      <polygon class="st5" points="540,301.2 541.9,314.2 573.5,311.3 576,300.5 			"/>
      <path class="st5" d="M456.1,330c0,0,30.4,1.2,32.5-9l30.2-0.6l2.3,24.8l-63.5,5L456.1,330z"/>
      <polygon class="st4" points="524.2,320.7 573.9,315.6 569.1,338.4 526.5,342.1 			"/>
		</g>
    <polygon class="st52" points="409.8,272.1 443.2,274.6 444.9,320.6 411.5,313.9 		"/>
    <polygon class="st53" points="411.4,323.1 422.3,354.9 447.4,351.6 444.9,329.8 		"/>
    <polygon class="st53" points="399,381.9 397.2,419.4 503.3,413.8 501.5,401.8 410.5,403.4 410.5,394.7 499,392.3 499.6,381.9
			"/>
    <polygon class="st16" points="500.6,351.9 504.4,377.1 521.6,373.2 520.8,349.1 		"/>
    <polygon class="st53" points="424.5,359.8 423,377.8 499.8,376.6 494.4,353 		"/>
    <polygon class="st53" points="414.8,348.2 398.9,352.4 398.9,371.7 419.8,374.2 		"/>
    <polygon class="st53" points="525.4,348.5 525.4,373.6 550.6,367.5 548.2,345.7 		"/>
    <polygon class="st53" points="553,345.2 569.2,343.5 566.8,352.4 554.2,353 		"/>
    <polygon class="st53" points="553.6,357.5 554.8,366.9 566.8,366.4 566.2,356.3 		"/>
    <polygon class="st53" points="506.9,383.4 509.6,414.4 565.3,411 565.3,372.5 550.9,373.4 		"/>
	</g>
</g>
  <polygon class="st54" points="667.2,349.1 656.6,349.1 654.4,300.1 669.1,300.1 "/>
  <polygon class="st54" points="668.8,297.2 655.1,297.2 651.8,260.3 671.8,260.3 "/>
  <polygon class="st54" points="653.4,349.1 649.2,297.1 606.4,303.1 610,347.1 "/>
  <polygon class="st54" points="653,295 628.8,297.3 627.4,278 650.9,278 "/>
  <g>
	<defs>
		<polygon id="SVGID_89_" points="651,275.5 647.6,260.3 585.4,261.4 585.4,275.5 		"/>
	</defs>
    <use xlink:href="#SVGID_89_" style="overflow:visible;fill-rule:evenodd;clip-rule:evenodd;fill:#EAF5F6;"/>
    <clipPath id="SVGID_90_">
		<use xlink:href="#SVGID_89_" style="overflow:visible;"/>
	</clipPath>
    <g class="st55">
		<defs>
			<rect id="SVGID_91_" x="422.7" y="80.4" width="427.1" height="358.7"/>
		</defs>
      <use xlink:href="#SVGID_91_" style="overflow:visible;fill:#EAF5F6;"/>
      <clipPath id="SVGID_92_">
			<use xlink:href="#SVGID_91_" style="overflow:visible;"/>
		</clipPath>
      <rect x="580.6" y="257.4" class="st56" width="75.2" height="21"/>
	</g>
</g>
  <polygon class="st54" points="626.2,298.3 624.8,279 606.4,279 606.4,300.1 "/>
  <polygon class="st54" points="602.8,316.5 595.5,322.4 581.9,322.4 585.5,277.4 602.8,278.2 "/>
  <polygon class="st54" points="606.8,343.9 598.3,342.4 599.7,324.1 606,319.4 "/>
  <polygon class="st54" points="596.4,343 596.4,327.4 581.5,325.1 581.5,343 "/>
  <polygon class="st54" points="646,388.8 621,388.8 621.7,367.9 645.6,370.3 "/>
  <polygon class="st54" points="618.3,389.6 618.9,368.8 600.1,366.9 597.9,389.5 "/>
  <polygon class="st54" points="592.5,406.8 584.4,412.4 570.5,411 579,363 596.6,365.6 "/>
  <polygon class="st57" points="587.4,256.3 586.9,222.4 602.9,223.6 602.2,237.7 601.1,257.5 "/>
  <polygon class="st54" points="604.2,257.3 633.4,257 629.2,240 604.9,241.2 "/>
  <polygon class="st54" points="627.2,234 629,238.1 617.6,239 617.6,234.2 "/>
  <polygon class="st54" points="606.4,235.5 605.3,239.5 616.6,238.9 616,234.4 "/>
  <polygon class="st58" points="458.4,198.5 459.2,190.4 492.7,192.1 492.7,198.9 "/>
</svg>
