<svg xmlns="http://www.w3.org/2000/svg" viewBox="0 0 420.22 310.76">
  <defs>
    <style>
      .cls-1{fill:#272d37;}.cls-2{fill:#00908a;}.cls-3{fill:#a51d32;}.cls-4{fill:#f99e1c;}.cls-5{fill:#58bf97;}.cls-6{fill:#652c8d;}.cls-7{fill:#fff;}
    </style>
  </defs>
  <title>Asset 31</title>
  <g id="Layer_2" data-name="Layer 2">
    <g id="Layer_1-2" data-name="Layer 1">
      <polygon class="cls-1" points="0.97 126.54 84.27 177.29 85.4 197.52 96.03 310.76 420.22 103.2 0.97 126.54"/>
      <polygon class="cls-2" points="0 126.2 419.99 103.16 76.18 172.56 0 126.2"/>
      <polygon class="cls-3" points="186.31 135.78 305.93 132.62 168.09 166.36 162.51 133.46 186.31 135.78"/>
      <polygon class="cls-2" points="69.14 191.25 18.16 310.02 419.99 103.26 69.14 191.25"/>
      <path class="cls-4"
            d="M168.72,14.13l7,10.72-3.08,1s7,6.91-3.17,12.7l3.11,8.22s-4.63,5.29-12.62-.67l-2.59-10.81s-13.6-21,11.36-21.21"/>
      <path class="cls-5"
            d="M160.9,46.58s-38.52,33.14,8.24,120.61c0,0-8.49-29.11,18.65-31.32,0,0,12.79-81.44-14.28-88.62Z"/>
      <path class="cls-5"
            d="M160.13,46.58s-31.88,52-26.55,122.46l3.54-.29s42.2-85,39.5-98.66C176.62,70.09,180,51.7,160.13,46.58Z"/>
      <path class="cls-4"
            d="M133.2,168.65l-3.65,3.86s-10-1.56-12.3,4.57l-1.13,5.64,13.45-5.06s-4.49,3.14-2.43,4.16,6.86-3.33,6.86-3.33a6,6,0,0,0,2.47-3.65,26.47,26.47,0,0,0,.27-6.47Z"/>
      <path class="cls-6"
            d="M154.74,9.17s-10-1.86-9.52,14.13c0,0,3.85,12.71,12.12,13.57,0,0,8.64-1.7-.29-4.62,0,0-7.58-7.18,1.85-11.73,0,0,3.36-1.92,2.57-5.32,0,0,13.38,1.55,11.47-12,0,0-3.57-6.91-7.85-.42C165.09,2.78,158.68,1,154.74,9.17Z"/>
      <circle class="cls-7" cx="166.59" cy="20.72" r="1.46"/>
    </g>
  </g>
</svg>
