<svg xmlns="http://www.w3.org/2000/svg"
     style=" var(--color-green;"
     xmlns:xlink="http://www.w3.org/1999/xlink" viewBox="0 0 572.9 554.88">
  <defs>
    <style>
      .cls-1,
      .cls-17,
      .cls-6{fill:none;}
      .cls-2{clip-path:url(#clip-path);}
      .cls-3{fill:#2d9ed5;opacity:0.3;}
      .cls-4{fill:#2d9ed5;}.cls-5,
      .cls-7{fill:#2d9ed5;}
      .cls-17,.cls-6{stroke:#86d1d1;stroke-miterlimit:10;}.cls-6{stroke-width:3px;}
      .cls-7{fill-rule:evenodd;}.cls-8{font-size:11.02px;
      fill:#2d9ed5;font-family:FiraGO-Book,
      FiraGO;}.cls-9{letter-spacing:-0.03em;}
      .cls-10{letter-spacing:-0.01em;}.cls-11{letter-spacing:0em;}.cls-12{letter-spacing:0em;}.cls-13{letter-spacing:-0.01em;}.cls-14{letter-spacing:0em;}
      .cls-15{fill:#2d9ed5;}
      .cls-16{fill:#2d9ed5;}
    </style>
    <clipPath id="clip-path" transform="translate(0 -2.37)">
      <rect class="cls-1" x="32.24" width="542.78" height="557.26"/>
    </clipPath>
  </defs>
  <title>Asset 16</title>
  <g id="Layer_2" data-name="Layer 2">
    <g id="Layer_1-2" data-name="Layer 1">
      <g class="cls-2">
        <circle class="cls-3" cx="197.92" cy="197.92" r="197.92"/>
        <path class="cls-3"
              d="M402.47,225.8c-2.91,106.49-91.31,192.51-197.85,192.51C96,418.31,6.7,329,6.7,220.39S96,22.47,204.62,22.47s197.93,89.34,197.93,197.92"
              transform="translate(0 -2.37)"/>
        <rect class="cls-4" x="74.39" y="321.03" width="120.16" height="27.43"/>
        <rect class="cls-4" x="74.39" y="355.54" width="120.16" height="27.43"/>
        <rect class="cls-4" x="74.39" y="389.16" width="120.16" height="27.43"/>
        <polygon class="cls-5" points="95.93 325.19 86 332.4 89.79 344.07 102.06 344.07 105.86 332.4 95.93 325.19"/>
        <polyline class="cls-6" points="104.09 362.33 93.56 372.86 87.77 378.65"/>
        <path class="cls-7"
              d="M96,400.52a3,3,0,1,1-3,3A3,3,0,0,1,96,400.52Zm-.07-4.94a8,8,0,0,1,8,8.06c0,3.82-5.48,9-8,13.36-2.53-4.38-8-9.54-8-13.36A8,8,0,0,1,95.93,395.58Z"
              transform="translate(0 -2.37)"/>
        <text class="cls-8" transform="translate(115.1 339.76)">
          <tspan class="cls-9">P</tspan>
          <tspan x="6.12" y="0">o</tspan>
          <tspan class="cls-10" x="12.52" y="0">l</tspan>
          <tspan class="cls-11" x="15.63" y="0">y</tspan>
          <tspan x="20.97" y="0">gon s</tspan>
          <tspan class="cls-12" x="47.52" y="0">t</tspan>
          <tspan x="51.4" y="0">y</tspan>
          <tspan class="cls-12" x="56.75" y="0">l</tspan>
          <tspan x="59.93" y="0">e</tspan>
        </text>
        <text class="cls-8" transform="translate(115.1 374.37)">Line s
          <tspan class="cls-13" x="28.88" y="0">t</tspan>
          <tspan class="cls-14" x="32.76" y="0">y</tspan>
          <tspan class="cls-13" x="38.11" y="0">l</tspan>
          <tspan x="41.29" y="0">e</tspan>
        </text>
        <text class="cls-8" transform="translate(115.1 408.07)">
          <tspan class="cls-9">P</tspan>
          <tspan x="6.12" y="0">oint s</tspan>
          <tspan class="cls-12" x="33.92" y="0">t</tspan>
          <tspan x="37.8" y="0">y</tspan>
          <tspan class="cls-12" x="43.16" y="0">l</tspan>
          <tspan x="46.33" y="0">e</tspan>
        </text>
        <polygon class="cls-4" points="58.1 528.83 27.28 548.28 110.58 551.09 138 531.35 58.1 528.83"/>
        <polygon class="cls-4"
                 points="68.12 525.13 91.98 510.07 133.28 500.97 166.77 521.88 147.33 527.28 68.12 525.13"/>
        <polygon class="cls-4" points="140.01 500.16 165.54 494.76 199.66 514.05 172.48 520.7 140.01 500.16"/>
        <polygon class="cls-4" points="173.6 493.1 205.69 512.47 257.4 500.85 202.81 486.59 173.6 493.1"/>
        <polygon class="cls-15" points="212.95 486.45 263.43 499.26 271.85 487.88 212.95 486.45"/>
        <polygon class="cls-4" points="208.85 485 272.78 485.27 279.62 477.32 221.41 476.06 208.85 485"/>
        <polygon class="cls-4" points="101.27 504.8 161.39 491.92 140.39 480.91 101.27 504.8"/>
        <polygon class="cls-4" points="155.12 486.37 172.2 491.56 197.07 486.78 155.12 486.37"/>
        <polygon class="cls-4" points="152 473.79 143.08 480.23 154.71 484.21 202.08 485.03 214.65 476.28 152 473.79"/>
        <polygon class="cls-4"
                 points="153.27 471.37 188.44 471.4 209.75 461.18 167.07 459.01 144.47 471.06 153.27 471.37"/>
        <polygon class="cls-4" points="163.33 458.54 140.66 468.61 115.57 466.46 136.57 457.24 163.33 458.54"/>
        <polygon class="cls-15" points="138.06 471.67 119.49 482.79 69.2 475.72 94.37 469.74 138.06 471.67"/>
        <polygon class="cls-4" points="33.59 483.04 63.15 476.91 116.48 484.08 104.2 491.03 33.59 483.04"/>
        <polygon class="cls-4" points="40.11 486 31.92 494 96.55 494.85 101.54 492.3 40.11 486"/>
        <polygon class="cls-15" points="31.31 496 93.91 496.92 69.64 509.81 27.01 509.23 31.31 496"/>
        <polygon class="cls-4" points="26.09 481.11 30.52 482.15 90.31 469.67 54.76 468.46 26.09 481.11"/>
        <polygon class="cls-4" points="29.24 463.95 99.33 466.4 87.5 456.48 29.24 463.95"/>
        <polygon class="cls-4" points="44.66 459.87 113.76 452.64 113.64 448.88 46.18 454.67 44.66 459.87"/>
        <polygon class="cls-4" points="92.25 456.72 106.8 467.35 132.49 456.58 116.16 453.55 92.25 456.72"/>
        <polygon class="cls-4" points="117.68 448.35 117.12 451.94 134.81 455.12 155.8 445.51 117.68 448.35"/>
        <polygon class="cls-4" points="41.1 454.44 25.22 454.96 25.45 461.89 40.3 460.81 41.1 454.44"/>
        <polygon class="cls-4" points="24.82 452.99 65.64 449.86 63.52 447.16 25.05 449.81 24.82 452.99"/>
        <polygon class="cls-4" points="72.41 449.84 118.96 446.13 127.3 442.88 71.13 441.95 66.52 445.87 72.41 449.84"/>
        <polygon class="cls-4" points="33.19 440.03 33.27 442.6 59.22 439.76 58.38 434.83 33.19 440.03"/>
        <polygon class="cls-4" points="33.66 443.98 58.93 441.16 63.52 447.16 35.46 447.49 33.66 443.98"/>
        <polygon class="cls-15"
                 points="66.77 432.77 70.73 440.18 131.31 441.16 158.41 432.33 82.24 430.08 66.77 432.77"/>
        <polygon class="cls-4" points="162.81 432.39 149.44 437.19 177.2 438.06 188.19 432.94 162.81 432.39"/>
        <polygon class="cls-4" points="146.42 437.88 125.36 445.32 163.86 443.65 173.52 439.37 146.42 437.88"/>
        <polygon class="cls-4" points="133.64 429.78 165.8 430.9 174.47 427.05 149.43 426.68 133.64 429.78"/>
        <polygon class="cls-4" points="169.53 431.17 177.86 427.33 202.56 427.51 190.85 431.46 169.53 431.17"/>
        <polygon class="cls-4" points="86.25 428.76 130.58 429.48 154.06 423.36 110.42 423.01 86.25 428.76"/>
        <polygon class="cls-4" points="155.13 425.3 203.86 425.88 210.18 422.89 161.81 422.7 155.13 425.3"/>
        <polygon class="cls-15"
                 points="143.62 455.62 155.61 449.88 190.68 446.94 198.89 449.64 196.77 457.24 143.62 455.62"/>
        <polygon class="cls-4" points="158.59 448.19 167.25 444.14 182.79 443.63 188.27 445.63 158.59 448.19"/>
        <polygon class="cls-4" points="173.57 440.76 189.62 435.07 215.8 439.37 173.57 440.76"/>
        <polygon class="cls-4" points="186.5 443.11 217.88 440.88 229.81 443.86 202.23 448.34 186.5 443.11"/>
        <polygon class="cls-15"
                 points="201.27 450.15 198.51 458.77 206.97 458.89 245.17 447.92 232.22 444.97 201.27 450.15"/>
        <polygon class="cls-4" points="222.25 440.14 232.5 443.38 244.29 441.8 237.09 438.86 222.25 440.14"/>
        <polygon class="cls-4" points="236.94 444.42 247.37 442.89 258.61 445.29 247.17 447.06 236.94 444.42"/>
        <polygon class="cls-4" points="194.52 471 212.13 461.5 239.56 462.57 222.98 472.64 194.52 471"/>
        <polygon class="cls-4" points="228.73 472.65 242.97 463.26 276.09 462.56 250.04 472.74 228.73 472.65"/>
        <polygon class="cls-4" points="256.14 472.93 303.94 455.7 338.31 462.1 290.03 474.99 256.14 472.93"/>
        <polygon class="cls-4" points="213.41 459.07 261.35 446.19 299.52 455.05 283.16 461.73 213.41 459.07"/>
        <polygon class="cls-4" points="285.53 487.33 275.77 498.96 300.13 499.34 304.82 487.59 285.53 487.33"/>
        <polygon class="cls-4" points="309.89 487.72 306.2 498.85 326.5 499.07 332.22 487.88 309.89 487.72"/>
        <polygon class="cls-4" points="288.48 484.56 331.64 485.52 334.99 479.46 294.83 477.21 288.48 484.56"/>
        <polygon class="cls-4" points="302.38 475.18 369.93 477.42 378.81 469.98 345.12 463.66 302.38 475.18"/>
        <polygon class="cls-4" points="383.4 470.73 373.49 477.89 393.3 478.43 398.23 474.1 383.4 470.73"/>
        <path class="cls-4" d="M341.63,483.4l-8,18.4,86.79,1.31.15-10.71s-24.42-2.17-27.12-7.14Z"
              transform="translate(0 -2.37)"/>
        <polygon class="cls-15" points="328.68 457.36 404.75 471.81 415.35 470.27 384.65 446.89 328.68 457.36"/>
        <polygon class="cls-4" points="311.31 453.77 325.08 455.99 381.03 444.93 361.7 443.48 311.31 453.77"/>
        <polygon class="cls-4" points="290.38 449.7 305.7 452.76 354.06 442.54 342.86 441.13 290.38 449.7"/>
        <polygon class="cls-4" points="274 445.48 286.26 448.05 303.41 444.81 298.22 441.41 274 445.48"/>
        <polygon class="cls-4" points="301.74 440.4 309.5 444.9 337.24 440.12 328.07 438.94 301.74 440.4"/>
        <polygon class="cls-4" points="240.78 437.95 268.87 443.57 296.63 439.38 280.7 433.06 240.78 437.95"/>
        <polygon class="cls-15"
                 points="284.22 432.06 301.15 438.04 326.99 436.89 355.17 430.02 326.62 425.6 284.22 432.06"/>
        <polygon class="cls-4" points="214.45 423.94 194.98 433.51 199.08 434.86 224.11 424.82 214.45 423.94"/>
        <polygon class="cls-15"
                 points="227.7 425.89 204.19 435.88 220.48 437.72 248.28 434.43 250.55 426.62 227.7 425.89"/>
        <polygon class="cls-4" points="256.16 427.33 253.33 433.97 271.54 432.18 269.84 426.88 256.16 427.33"/>
        <polygon class="cls-4" points="274.41 427.02 278.1 431.07 300.78 426.75 274.41 427.02"/>
        <polygon class="cls-4" points="336.62 436.58 358.28 432 376.4 443 336.62 436.58"/>
        <ellipse class="cls-4" cx="435.18" cy="481.75" rx="23.07" ry="5.1"
                 transform="translate(-15.62 12.22) rotate(-1.89)"/>
        <polygon class="cls-4" points="171.67 526.77 255.68 505.27 235.18 529.74 171.67 526.77"/>
        <polygon class="cls-15" points="152.54 531.27 124.8 551.52 213.17 554.55 231.25 533.73 152.54 531.27"/>
        <polygon class="cls-15" points="273.35 502.61 249.4 530.16 362.15 533.88 364.22 504.37 273.35 502.61"/>
        <polygon class="cls-4" points="247.5 534.09 230.42 554.58 302.47 554.88 314.01 535.77 247.5 534.09"/>
        <polygon class="cls-15" points="328.75 536.47 322.19 553.04 425.61 550.83 426.23 538.91 328.75 536.47"/>
        <polygon class="cls-16" points="368.07 513.46 367.21 533.72 424.53 533.32 425.4 513.66 368.07 513.46"/>
        <polygon class="cls-4" points="368.26 503.94 368.5 511.07 424.83 511.59 424.11 505.37 368.26 503.94"/>
        <path class="cls-15" d="M433.08,471.76s25.89.63,29.52,2.89l27.19-5.95-15-7.83-51.6,4.37Z"
              transform="translate(0 -2.37)"/>
        <polygon class="cls-4" points="409.75 454.39 420.62 460.87 470.22 457.45 458.86 451.29 409.75 454.39"/>
        <polygon class="cls-4" points="399.39 447.89 406.64 452.41 424.86 450.92 418.1 446.09 399.39 447.89"/>
        <polygon class="cls-4" points="423.19 446.51 431.46 451.3 454.25 449.95 443.43 444.95 423.19 446.51"/>
        <polygon class="cls-15" points="380.74 436.01 397.76 444.67 439.28 442.12 412.53 430.8 380.74 436.01"/>
        <polygon class="cls-4" points="378.63 433.7 409.41 428.53 370.35 428.62 378.63 433.7"/>
        <polygon class="cls-4" points="366.72 426.36 354.83 419.62 372.55 418.44 375.86 426.66 366.72 426.36"/>
        <polygon class="cls-15" points="377.61 417.98 380.41 426.21 424.44 422.98 411.52 415.67 377.61 417.98"/>
        <polygon class="cls-4" points="410.84 425.8 440.17 423.05 433.27 429.23 410.84 425.8"/>
        <polygon class="cls-4" points="333.08 406.06 351.72 417.64 365.87 415.98 345.75 405.64 333.08 406.06"/>
        <polygon class="cls-4" points="351.87 406.63 363.22 412.5 398.68 410.74 387.87 406.04 351.87 406.63"/>
        <polygon class="cls-4" points="367.82 413.54 374 416.31 408.41 413.69 402.26 411.81 367.82 413.54"/>
        <polygon class="cls-15" points="415.54 414.35 394.44 405.23 423.86 405.15 442.89 413.15 415.54 414.35"/>
        <polygon class="cls-15" points="415.54 414.35 446.98 414.2 471 419.36 429.49 422.21 415.54 414.35"/>
        <polygon class="cls-4" points="422.18 431.38 436.07 437.17 492.38 437.1 494.27 432.87 422.18 431.38"/>
        <polygon class="cls-4" points="441.21 439.08 491.44 439.21 489.67 447 459.76 447.69 441.21 439.08"/>
        <polygon class="cls-15" points="464.4 450.21 483.13 448.7 517.57 462.44 497.86 464.87 464.4 450.21"/>
        <polygon class="cls-4" points="491.26 449.33 503.59 453.98 557.66 447.44 546.88 443.63 491.26 449.33"/>
        <polygon class="cls-15" points="508.21 455.61 522.63 461.98 568.03 454.23 559.24 449.17 508.21 455.61"/>
        <polygon class="cls-4" points="498.56 439.87 493.21 446.88 521.04 444.48 520.91 440.62 498.56 439.87"/>
        <polygon class="cls-4" points="500.89 433.54 498.99 437.47 543.18 438.99 540.98 434.01 500.89 433.54"/>
        <polygon class="cls-4" points="524.96 440.48 524.57 444.07 543.77 441.65 524.96 440.48"/>
        <polygon class="cls-4" points="468.26 474.77 567.13 457.83 565.98 468.88 468.26 474.77"/>
        <polygon class="cls-4" points="472.91 477.29 564.56 472.19 563.8 479.95 472.91 477.29"/>
        <path class="cls-4" d="M475.64,485.52a12.52,12.52,0,0,1-9,4.76c-6.07.5,40.36,8.49,40.36,8.49l56-11.07Z"
              transform="translate(0 -2.37)"/>
        <path class="cls-4" d="M436.85,493.94s16.73-.25,23.77-2.27l33.24,8.13-15.59,4.08-34-.67Z"
              transform="translate(0 -2.37)"/>
        <polygon class="cls-15" points="443.87 504.42 490.57 505.26 497.9 512.16 445.18 513.3 443.87 504.42"/>
        <polygon class="cls-15" points="443.72 515.43 496.98 515.17 510.71 531.37 446.41 535.27 443.72 515.43"/>
        <polygon class="cls-4" points="498.72 506.19 517.8 531.14 567.45 528.91 537.78 506.09 498.72 506.19"/>
        <polygon class="cls-15" points="503.19 503.36 549.05 494.12 562.81 496.04 564.64 505.2 503.19 503.36"/>
        <polygon class="cls-4" points="545.9 506.42 572.9 509.69 568.84 524.99 545.9 506.42"/>
        <polygon class="cls-4" points="448.09 540.27 450.44 550.01 567.51 546.15 566.6 533.99 448.09 540.27"/>
        <polyline class="cls-17" points="397.72 474.11 381.75 470.62 257.67 443.49 236.58 438.87"/>
        <polyline class="cls-17" points="380.13 470.2 367.71 479.77 338.52 478.87 329.89 499.32"/>
        <polyline class="cls-17" points="275.77 498.96 433.55 504.32 437.73 551.21"/>
        <line class="cls-17" x1="213.41" y1="459.07" x2="261.35" y2="446.19"/>
      </g>
    </g>
  </g>
</svg>
