<?xml version="1.0" encoding="UTF-8"?>
<svg width="13px" height="16px" viewBox="0 0 13 16" version="1.1" xmlns="http://www.w3.org/2000/svg" xmlns:xlink="http://www.w3.org/1999/xlink">
    <!-- Generator: Sketch 52.6 (67491) - http://www.bohemiancoding.com/sketch -->
    <title>   ↳ 🌈 Color</title>
    <desc>Created with Sketch.</desc>
    <g id="Page-1" stroke="none" stroke-width="1" fill="none" fill-rule="evenodd">
        <g id="Publish_landing-(1)" transform="translate(-282.000000, -692.000000)" fill="#2DD5C9">
            <g id="Group-3" transform="translate(0.000000, 4.000000)">
                <path d="M292.399341,693.600659 L292.399341,692.000761 C292.42365,690.932695 292.01006,689.901159 291.254628,689.145727 C290.499196,688.390295 289.46766,687.976705 288.399594,688.001014 C286.233277,687.960857 284.443604,689.682523 284.399848,691.84877 L284.399848,693.600659 L282,693.600659 L282,702.400101 C282,703.283701 282.716299,704 283.599899,704 L293.19929,704 C294.08289,704 294.799189,703.283701 294.799189,702.400101 L294.799189,693.600659 L292.399341,693.600659 Z M285.999746,691.84877 C286.043216,690.566021 287.116746,689.560481 288.399594,689.600913 C289.043415,689.575903 289.668465,689.820703 290.124058,690.276297 C290.579652,690.73189 290.824452,691.35694 290.799442,692.000761 L290.799442,693.600659 L285.999746,693.600659 L285.999746,691.84877 Z M293.19929,702.400101 L283.599899,702.400101 L283.599899,695.200558 L293.19929,695.200558 L293.19929,702.400101 Z" id="---↳-🌈-Color"></path>
            </g>
        </g>
    </g>
</svg>