<svg xmlns="http://www.w3.org/2000/svg" xmlns:xlink="http://www.w3.org/1999/xlink" viewBox="0 0 115 61"><defs><style>.cls-1,.cls-2{fill:none;}.cls-1{clip-rule:evenodd;}.cls-3{clip-path:url(#clip-path);}.cls-4{clip-path:url(#clip-path-2);}.cls-5{fill:#aaddde;}</style><clipPath id="clip-path" transform="translate(-1413 -305)"><path class="cls-1" d="M1522.58,361a20.51,20.51,0,0,0,.42-4.1,19.92,19.92,0,0,0-3.15-10.82,18.34,18.34,0,0,0-12.25-8.24,18.24,18.24,0,0,0,1.45-7.13c0-11.44-10.65-20.71-23.78-20.71-12.35,0-22.49,8.19-23.67,18.66a26.05,26.05,0,0,0-17.7-6.87,25.69,25.69,0,0,0-25.9,25.48,25.08,25.08,0,0,0,4.08,13.73Z"/></clipPath><clipPath id="clip-path-2" transform="translate(-1413 -305)"><rect class="cls-2" width="1600" height="1000"/></clipPath></defs><title>Asset 19</title><g id="Layer_2" data-name="Layer 2"><g id="Layer_1-2" data-name="Layer 1"><g class="cls-3"><g class="cls-4"><rect class="cls-5" width="115" height="61"/></g></g></g></g></svg>