<svg id="Layer_1" data-name="Layer 1" xmlns="http://www.w3.org/2000/svg" viewBox="0 0 571.57 158.01"><defs><style>.cls-1{fill:#e38c56;}.cls-2{fill:#73bc9a;}.cls-3{fill:#393c45;}.cls-4{fill:#d5eae9;}</style></defs><title>bird</title><path class="cls-1" d="M297.11,92.14h0c.54-.64,7.46-8.3,19-.29,9.43,6.51,14.74.55,15,.29h0c.55-.64,7.47-8.3,19.05-.29,9.43,6.51,14.74.55,15,.29h0c.2-.22.41-.44.63-.64-.84-20.16-16-36.22-34.52-36.22-18.87,0-34.22,16.63-34.54,37.29Z"/><path class="cls-2" d="M362.29,53.41H326.7a15.87,15.87,0,0,1-15.86-15.86V12.05A12.06,12.06,0,0,1,322.91,0a11.27,11.27,0,0,1,1.16.06,12.28,12.28,0,0,1,10.84,12.26v7.5a31,31,0,0,1,27.37,30.92Z"/><path class="cls-3" d="M345.46,26.78H348a16,16,0,0,1,16,16h0a1,1,0,0,1-1,1H340.22a5.89,5.89,0,0,1-5.89-5.89h0a11.12,11.12,0,0,1,11.11-11.12Z"/><circle class="cls-3" cx="320.93" cy="12.92" r="2.26"/><path class="cls-3" d="M312.05,19.77H307.5a2.54,2.54,0,0,1-.49-5,2,2,0,0,1,.49,0h4.55a2.52,2.52,0,0,1,.49,5A4,4,0,0,1,312.05,19.77Z"/><rect class="cls-3" x="323.25" y="50.88" width="3.48" height="6.89"/><rect class="cls-3" x="334.41" y="50.88" width="3.48" height="6.89"/><path class="cls-4" d="M13.35,115a18.74,18.74,0,0,0,10.22,3.39,13.19,13.19,0,0,0,9.24-3.67l-.38-.31.4.3c.21-.24,5.11-5.81,14.63.32a18.74,18.74,0,0,0,10.22,3.39,13.19,13.19,0,0,0,9.21-3.64h0c.21-.24,5.1-5.82,14.63.31a18.73,18.73,0,0,0,10.22,3.4,13.25,13.25,0,0,0,9.19-3.64h0c.51-.56,5.39-5.57,14.6.36a18.63,18.63,0,0,0,10.21,3.39,13.26,13.26,0,0,0,9.26-3.7l-.38-.31.42.32c.21-.24,5.1-5.82,14.63.32a18.85,18.85,0,0,0,10.22,3.39,13.15,13.15,0,0,0,9.24-3.68l-.38-.31.4.31c.21-.25,5.11-5.82,14.63.31a18.73,18.73,0,0,0,10.22,3.4,13.23,13.23,0,0,0,9.2-3.64h0c.21-.24,5.11-5.81,14.64.32a18.63,18.63,0,0,0,10.21,3.39,13.18,13.18,0,0,0,9.2-3.63h0c.51-.56,5.39-5.56,14.59.36a18.76,18.76,0,0,0,10.22,3.4,13.24,13.24,0,0,0,9.17-3.61h.06c.62-.68,5.49-5.45,14.56.39A18.66,18.66,0,0,0,296.07,119a13.23,13.23,0,0,0,9.23-3.66h0c.22-.25,5.11-5.82,14.64.31a18.73,18.73,0,0,0,10.22,3.4,13.26,13.26,0,0,0,9.24-3.68l-.38-.31.39.3c.22-.24,5.12-5.81,14.64.32a18.63,18.63,0,0,0,10.21,3.39,13.19,13.19,0,0,0,9.21-3.64h0c.21-.24,5.11-5.82,14.63.32a18.8,18.8,0,0,0,10.33,3.33,13.23,13.23,0,0,0,9.2-3.64h0c.51-.56,5.39-5.57,14.59.36a18.65,18.65,0,0,0,10.26,3.28,13.2,13.2,0,0,0,9.24-3.67l-.38-.31.42.32c.21-.24,5.11-5.82,14.63.32a18.74,18.74,0,0,0,10.22,3.39,13.2,13.2,0,0,0,9.24-3.67l-.38-.32.4.31c.21-.25,5.11-5.82,14.63.32a18.85,18.85,0,0,0,10.22,3.39,13.23,13.23,0,0,0,9.21-3.64h0c.22-.24,5.11-5.81,14.64.32a18.66,18.66,0,0,0,10.22,3.39,13.15,13.15,0,0,0,9.19-3.63h0c.51-.57,5.39-5.57,14.6.36a18.79,18.79,0,0,0,10.21,3.39,13.27,13.27,0,0,0,2.74-.28v-3.27c-2.55.68-6.28.59-11.06-2.49-12.06-7.79-19.09.23-19.16.31h0a9.28,9.28,0,0,1-5.69,2.41h0c-2.39.18-5.47-.41-9.21-2.8-12.06-7.78-19.08.24-19.15.32h0c-.84.81-6.07,5.3-14.91-.39-12.06-7.78-19.09.23-19.16.31h0c-.66.66-5.92,5.46-14.95-.35-11.48-7.4-18.39-.51-19.09.25h0c-.23.24-5.56,5.82-15-.28-12.07-7.78-19.09.24-19.16.32h0a9.29,9.29,0,0,1-5.69,2.4h0c-2.39.19-5.48-.4-9.21-2.79-12.07-7.78-19.09.23-19.16.31h0c-.83.82-6.06,5.3-14.91-.39-12.06-7.78-19.08.24-19.16.32h0c-.66.67-5.93,5.47-15-.35-12-7.72-19,.11-19.15.31-.74.74-6,5.39-14.93-.36-12.07-7.78-19.09.24-19.16.32h0c-.94.9-6.15,5.19-14.87-.43-12.07-7.78-19.09.24-19.16.32h0a9.24,9.24,0,0,1-5.69,2.4h0c-2.39.19-5.47-.4-9.21-2.79-12.07-7.78-19.09.24-19.16.32h0c-.83.81-6.06,5.3-14.9-.4-12.07-7.77-19.09.24-19.16.32h0c-.66.67-5.92,5.47-14.95-.34-11.48-7.41-18.39-.51-19.1.24h0c-.22.24-5.55,5.81-15-.28-12.06-7.78-19.09.24-19.16.32h0a9.28,9.28,0,0,1-5.69,2.41h0c-2.39.18-5.47-.4-9.21-2.8-12.06-7.77-19.08.24-19.15.32h0c-.83.81-6.07,5.3-14.91-.39-12.06-7.78-19.09.24-19.16.32h0c-.66.66-5.92,5.47-14.95-.35-6.8-4.38-12-3.75-15.25-2.35v3.6C2,112.25,6.49,110.59,13.35,115Z"/><path class="cls-4" d="M571.57,126.58c-1.64,1.31-6.63,4.22-14.43-.81-12.07-7.78-19.09.24-19.16.32h0a8.61,8.61,0,0,1-2.32,1.54h0a10,10,0,0,1-2.78.8h-.12l-.52,0h-1.72l-.59-.06h-.27l-.5-.09-.31-.07a5.29,5.29,0,0,1-.54-.13l-.29-.07-.82-.27-.21-.08-.67-.26-.35-.15-.58-.27-.37-.18-.62-.34-.34-.18-1-.6c-11.69-7.54-18.65-.25-19.13.29h0c-.83.81-6.06,5.3-14.91-.4-12.06-7.77-19.08.24-19.16.32h0c-.66.67-5.93,5.47-15-.34-11.48-7.41-18.39-.52-19.09.24h0c-.22.24-5.56,5.81-15-.28-12.07-7.78-19.09.24-19.16.32h0a8.33,8.33,0,0,1-2.31,1.54h0a9.65,9.65,0,0,1-2.78.81h-2.39l-.58-.06h-.28l-.5-.09-.31-.06-.54-.13-.28-.08c-.27-.08-.55-.16-.83-.26l-.21-.08-.67-.27-.34-.15-.58-.26-.37-.19-.63-.33-.33-.19c-.33-.18-.65-.38-1-.6-11.69-7.54-18.64-.24-19.13.29h0c-.83.81-6.06,5.3-14.9-.39-12.07-7.78-19.09.24-19.16.32h0c-.66.66-5.92,5.47-14.95-.35-12-7.72-19,.1-19.15.31-.74.74-6,5.39-14.94-.37-12.06-7.78-19.09.24-19.16.32h0c-.93.9-6.15,5.19-14.87-.43-12.06-7.78-19.09.24-19.16.32h0A8.33,8.33,0,0,1,229,127h0a9.65,9.65,0,0,1-2.78.81H226a4.34,4.34,0,0,1-.51,0H223.8l-.58-.06H223l-.51-.09-.3-.07-.54-.13-.29-.08c-.27-.08-.55-.16-.83-.26l-.2-.08-.68-.26-.34-.15-.58-.27-.37-.18-.63-.34-.33-.19-1-.59c-12-7.77-19,.2-19.15.31-.83.82-6.07,5.3-14.91-.39-12.06-7.78-19.09.24-19.16.32h0c-.66.67-5.92,5.47-15-.35-11.48-7.4-18.39-.51-19.09.25h0c-.22.25-5.56,5.82-15-.27-12.07-7.79-19.09.23-19.16.31h0a8.38,8.38,0,0,1-2.32,1.54h0a10,10,0,0,1-2.78.8H87.42l-.59-.07h-.27l-.5-.09-.31-.06-.54-.14-.21,0c-.28-.08-.55-.17-.83-.27l-.21-.08c-.22-.08-.45-.16-.67-.26l-.35-.15-.58-.27L82,126c-.21-.1-.42-.22-.63-.33l-.34-.19c-.32-.19-.65-.38-1-.6-11.69-7.54-18.64-.25-19.13.29h0c-.83.81-6.06,5.3-14.91-.39-12.06-7.78-19.08.23-19.15.31h0c-.66.66-5.93,5.47-15-.35-4.76-3-8.76-3.63-11.84-3.24v3.2c2.4-.41,5.73,0,10,2.73a18.83,18.83,0,0,0,10.22,3.39,13.31,13.31,0,0,0,9.22-3.71l-.38-.32.4.31c.21-.25,5.11-5.82,14.63.32a18.83,18.83,0,0,0,10.22,3.39,13.28,13.28,0,0,0,9.2-3.64h0A8.52,8.52,0,0,1,70,124.69a15.74,15.74,0,0,1,8.18,2.87c.49.32,1,.61,1.45.88a24.89,24.89,0,0,0,2.76,1.31c.45.17.88.33,1.31.46a15.92,15.92,0,0,0,4.7.74h1.15a3.12,3.12,0,0,0,.73-.09h.37c.3-.05.6-.11.9-.19h.12a13.17,13.17,0,0,0,5.93-3.22h0c.51-.57,5.39-5.57,14.59.36a18.85,18.85,0,0,0,10.22,3.39,13.24,13.24,0,0,0,9.24-3.68l-.38-.3.42.32c.21-.25,5.11-5.82,14.63.31a18.92,18.92,0,0,0,10.22,3.4,13.26,13.26,0,0,0,9.24-3.68l-.38-.31.4.3c.21-.24,5.11-5.81,14.63.32a18.8,18.8,0,0,0,10.23,3.26,13.24,13.24,0,0,0,9.21-3.64h0a8.45,8.45,0,0,1,6.44-2.55,15.69,15.69,0,0,1,8.19,2.87,18.84,18.84,0,0,0,10.23,3.32,8.7,8.7,0,0,0,1.14,0l.74-.09c.25,0,.24,0,.36-.06a4.08,4.08,0,0,0,.91-.18H228a13,13,0,0,0,5.92-3.23h0c.51-.56,5.39-5.57,14.6.36a18.79,18.79,0,0,0,10.21,3.39,13.19,13.19,0,0,0,9.17-3.61H268c.63-.67,5.5-5.45,14.57.39a18.8,18.8,0,0,0,10.21,3.4A13.37,13.37,0,0,0,302,127.8h0c.21-.24,5.11-5.81,14.63.32a18.83,18.83,0,0,0,10.22,3.39,13.2,13.2,0,0,0,9.24-3.67l-.38-.31.4.3c.21-.24,5.11-5.82,14.63.32A18.81,18.81,0,0,0,361,131.44a13.23,13.23,0,0,0,9.2-3.64h0a8.49,8.49,0,0,1,6.45-2.55,15.8,15.8,0,0,1,8.19,2.86c.49.32,1,.61,1.45.88a21.76,21.76,0,0,0,2.76,1.31c.44.18.88.33,1.3.46a15.93,15.93,0,0,0,4.7.75,11.07,11.07,0,0,0,1.15-.06,2,2,0,0,0,.73-.09h.37c.31-.05.6-.11.9-.18h.13a13,13,0,0,0,5.92-3.23h0c.51-.56,5.39-5.57,14.59.36a18.83,18.83,0,0,0,10.22,3.39A13.25,13.25,0,0,0,438.3,128l-.37-.31.41.32c.22-.24,5.11-5.82,14.64.32a18.83,18.83,0,0,0,10.22,3.39,13.26,13.26,0,0,0,9.24-3.68l-.38-.31.39.31c.22-.25,5.12-5.82,14.64.31a18.8,18.8,0,0,0,10.21,3.4,13.25,13.25,0,0,0,9.21-3.65h0a8.45,8.45,0,0,1,6.44-2.55,15.72,15.72,0,0,1,8.19,2.87,18.83,18.83,0,0,0,10.22,3.39h1.15l.73-.09h.37a4.13,4.13,0,0,0,.9-.19h.12a13.17,13.17,0,0,0,5.93-3.22h0c.51-.56,5.39-5.56,14.59.36a18.81,18.81,0,0,0,10.22,3.4,13.66,13.66,0,0,0,6.11-1.45Z"/><path class="cls-4" d="M13.35,140.13a18.83,18.83,0,0,0,10.22,3.39,13.19,13.19,0,0,0,9.24-3.67l-.38-.31.4.3c.21-.24,5.11-5.81,14.63.32a18.83,18.83,0,0,0,10.22,3.39,13.19,13.19,0,0,0,9.21-3.64h0c.21-.24,5.1-5.82,14.63.31a18.73,18.73,0,0,0,10.22,3.4,13.3,13.3,0,0,0,9.19-3.64h0c.51-.56,5.39-5.57,14.6.36a18.79,18.79,0,0,0,10.21,3.39A13.26,13.26,0,0,0,135,140l-.38-.31.42.32c.21-.24,5.1-5.82,14.63.32a18.85,18.85,0,0,0,10.22,3.39,13.24,13.24,0,0,0,9.24-3.68l-.38-.31.4.31c.21-.25,5.11-5.82,14.63.31a18.73,18.73,0,0,0,10.22,3.4,13.28,13.28,0,0,0,9.2-3.64h0c.21-.24,5.11-5.81,14.64.32a18.79,18.79,0,0,0,10.21,3.39,13.27,13.27,0,0,0,9.2-3.63h0c.51-.56,5.39-5.56,14.59.36a18.84,18.84,0,0,0,10.22,3.4,13.33,13.33,0,0,0,9.17-3.61h.06c.62-.68,5.49-5.45,14.56.39a18.83,18.83,0,0,0,10.22,3.39,13.28,13.28,0,0,0,9.23-3.66h0c.22-.25,5.11-5.82,14.64.31a18.73,18.73,0,0,0,10.22,3.4,13.26,13.26,0,0,0,9.24-3.68l-.38-.31.39.3c.22-.24,5.12-5.81,14.64.32a18.79,18.79,0,0,0,10.21,3.39,13.19,13.19,0,0,0,9.21-3.64h0c.21-.24,5.11-5.82,14.63.32a18.8,18.8,0,0,0,10.33,3.33,13.23,13.23,0,0,0,9.2-3.64h0c.51-.56,5.39-5.57,14.59.36a18.81,18.81,0,0,0,10.26,3.28,13.2,13.2,0,0,0,9.24-3.67l-.38-.31.42.32c.21-.24,5.11-5.82,14.63.32a18.83,18.83,0,0,0,10.22,3.39,13.25,13.25,0,0,0,9.24-3.67l-.38-.32.4.31c.21-.25,5.11-5.82,14.63.32a18.85,18.85,0,0,0,10.22,3.39,13.27,13.27,0,0,0,9.21-3.64h0c.22-.24,5.11-5.81,14.64.32a18.74,18.74,0,0,0,10.22,3.39,13.24,13.24,0,0,0,9.19-3.63h0c.51-.57,5.39-5.57,14.6.36a18.79,18.79,0,0,0,10.21,3.39,14,14,0,0,0,2.74-.28V141c-2.55.68-6.28.59-11.06-2.49-12.06-7.79-19.09.23-19.16.31h0a9.28,9.28,0,0,1-5.69,2.41h0c-2.39.18-5.47-.41-9.21-2.8-12.06-7.78-19.08.24-19.15.32h0c-.84.81-6.07,5.3-14.91-.39-12.06-7.78-19.09.23-19.16.31h0c-.66.66-5.92,5.46-14.95-.35-11.48-7.4-18.39-.51-19.09.25h0c-.23.24-5.56,5.82-15-.28-12.07-7.78-19.09.24-19.16.32h0a9.35,9.35,0,0,1-5.69,2.4h0c-2.39.19-5.48-.4-9.21-2.79-12.07-7.78-19.09.23-19.16.31h0c-.83.82-6.06,5.3-14.91-.39-12.06-7.78-19.08.24-19.16.32h0c-.66.67-5.93,5.47-15-.35-12-7.72-19,.11-19.15.31-.74.74-6,5.39-14.93-.36-12.07-7.78-19.09.24-19.16.32h0c-.94.9-6.15,5.19-14.87-.43-12.07-7.78-19.09.24-19.16.32h0a9.29,9.29,0,0,1-5.69,2.4h0c-2.39.19-5.47-.4-9.21-2.79-12.07-7.78-19.09.24-19.16.32h0c-.83.81-6.06,5.3-14.9-.4-12.07-7.77-19.09.24-19.16.32h0c-.66.67-5.92,5.47-14.95-.34-11.48-7.41-18.39-.51-19.1.24h0c-.22.24-5.55,5.81-15-.28-12.06-7.78-19.09.24-19.16.32h0a9.28,9.28,0,0,1-5.69,2.41h0c-2.39.18-5.47-.4-9.21-2.8-12.06-7.77-19.08.24-19.15.32h0c-.83.81-6.07,5.3-14.91-.39-12.06-7.78-19.09.24-19.16.32h0c-.66.66-5.92,5.47-14.95-.35-6.8-4.38-12-3.75-15.25-2.35v3.6C2,137.37,6.49,135.71,13.35,140.13Z"/><path class="cls-4" d="M571.57,151.7c-1.64,1.31-6.63,4.22-14.43-.81-12.07-7.78-19.09.24-19.16.32h0a8.85,8.85,0,0,1-2.32,1.54h0a10,10,0,0,1-2.78.8h-.12l-.52,0h-1.72l-.59-.06h-.27l-.5-.09-.31-.07-.54-.13-.29-.07-.82-.27-.21-.08-.67-.26-.35-.15-.58-.27L525,152l-.62-.34-.34-.18-1-.6c-11.69-7.54-18.65-.25-19.13.29h0c-.83.81-6.06,5.3-14.91-.4-12.06-7.77-19.08.24-19.16.32h0c-.66.67-5.93,5.47-15-.34-11.48-7.41-18.39-.52-19.09.24h0c-.22.24-5.56,5.81-15-.28-12.07-7.78-19.09.24-19.16.32h0a8.79,8.79,0,0,1-2.31,1.54h0a10.33,10.33,0,0,1-2.78.81h-2.39l-.58-.06h-.28l-.5-.09-.31-.06-.54-.13-.28-.08c-.27-.08-.55-.16-.83-.26l-.21-.08-.67-.27-.34-.15-.58-.26-.37-.19-.63-.33-.33-.19c-.33-.18-.65-.38-1-.6-11.69-7.54-18.64-.24-19.13.29h0c-.83.81-6.06,5.3-14.9-.39-12.07-7.78-19.09.24-19.16.32h0c-.66.66-5.92,5.47-14.95-.35-12-7.72-19,.1-19.15.31-.74.74-6,5.39-14.94-.37-12.06-7.78-19.09.24-19.16.32h0c-.93.9-6.15,5.19-14.87-.43-12.06-7.78-19.09.24-19.16.32h0a8.79,8.79,0,0,1-2.31,1.54h0a10.33,10.33,0,0,1-2.78.81H223.8l-.58-.06H223l-.51-.09-.3-.07-.54-.13-.29-.08c-.27-.08-.55-.16-.83-.26l-.2-.08-.68-.26-.34-.15-.58-.27-.37-.18-.63-.34-.33-.19-1-.59c-12-7.77-19,.2-19.15.31-.83.82-6.07,5.3-14.91-.39-12.06-7.78-19.09.24-19.16.32h0c-.66.67-5.92,5.47-15-.35-11.48-7.4-18.39-.51-19.09.25h0c-.22.25-5.56,5.82-15-.27-12.07-7.79-19.09.23-19.16.31h0a8.61,8.61,0,0,1-2.32,1.54h0a10,10,0,0,1-2.78.8H87.42l-.59-.07h-.27l-.5-.09-.31-.06-.54-.14-.21,0c-.28-.08-.55-.17-.83-.27L84,152c-.22-.08-.45-.16-.67-.26l-.35-.15-.58-.27-.36-.18c-.21-.1-.42-.22-.63-.33l-.34-.19-1-.6c-11.69-7.54-18.64-.25-19.13.29h0c-.83.81-6.06,5.3-14.91-.39-12.06-7.78-19.08.23-19.15.31h0c-.66.66-5.93,5.47-15-.35-4.76-3-8.76-3.63-11.84-3.24v3.2c2.4-.41,5.73,0,10,2.73A18.83,18.83,0,0,0,20.22,156a13.31,13.31,0,0,0,9.22-3.71l-.38-.32.4.31c.21-.25,5.11-5.82,14.63.32A18.91,18.91,0,0,0,54.31,156a13.32,13.32,0,0,0,9.2-3.64h0A8.48,8.48,0,0,1,70,149.81a15.66,15.66,0,0,1,8.18,2.87c.49.32,1,.61,1.45.88a24.89,24.89,0,0,0,2.76,1.31c.45.17.88.33,1.31.46a15.92,15.92,0,0,0,4.7.74h1.15a3.12,3.12,0,0,0,.73-.09h.37c.3,0,.6-.11.9-.19h.12a13.17,13.17,0,0,0,5.93-3.22h0c.51-.57,5.39-5.57,14.59.36a19,19,0,0,0,10.22,3.39,13.24,13.24,0,0,0,9.24-3.68l-.38-.3.42.32c.21-.25,5.11-5.82,14.63.31a18.92,18.92,0,0,0,10.22,3.4,13.35,13.35,0,0,0,9.24-3.68l-.38-.31.4.3c.21-.24,5.11-5.81,14.63.32a18.88,18.88,0,0,0,10.23,3.26,13.24,13.24,0,0,0,9.21-3.64h0a8.38,8.38,0,0,1,6.44-2.55,15.6,15.6,0,0,1,8.19,2.87,18.92,18.92,0,0,0,10.23,3.32,8.7,8.7,0,0,0,1.14,0l.74-.09c.25,0,.24,0,.36-.06a4.08,4.08,0,0,0,.91-.18H228a13.1,13.1,0,0,0,5.92-3.23h0c.51-.56,5.39-5.57,14.6.36a18.79,18.79,0,0,0,10.21,3.39,13.24,13.24,0,0,0,9.17-3.61H268c.63-.67,5.5-5.45,14.57.39a18.89,18.89,0,0,0,10.21,3.4,13.37,13.37,0,0,0,9.23-3.66h0c.21-.24,5.11-5.81,14.63.32a18.83,18.83,0,0,0,10.22,3.39,13.29,13.29,0,0,0,9.24-3.67l-.38-.31.4.3c.21-.24,5.11-5.82,14.63.32A18.81,18.81,0,0,0,361,156.56a13.28,13.28,0,0,0,9.2-3.64h0a8.49,8.49,0,0,1,6.45-2.55,15.62,15.62,0,0,1,8.19,2.86c.49.32,1,.61,1.45.88a24.89,24.89,0,0,0,2.76,1.31c.44.18.88.33,1.3.46a16.26,16.26,0,0,0,4.7.75,11.07,11.07,0,0,0,1.15-.06,2,2,0,0,0,.73-.09h.37c.31,0,.6-.11.9-.18h.13a13.1,13.1,0,0,0,5.92-3.23h0c.51-.56,5.39-5.57,14.59.36a18.83,18.83,0,0,0,10.22,3.39,13.29,13.29,0,0,0,9.24-3.67l-.37-.31.41.32c.22-.24,5.11-5.82,14.64.32a18.91,18.91,0,0,0,10.22,3.39,13.35,13.35,0,0,0,9.24-3.68l-.38-.31.39.31c.22-.25,5.12-5.82,14.64.31a18.89,18.89,0,0,0,10.21,3.4,13.34,13.34,0,0,0,9.21-3.65h0A8.45,8.45,0,0,1,513,150.7a15.72,15.72,0,0,1,8.19,2.87A18.83,18.83,0,0,0,531.36,157h1.15l.73-.09h.37a4.13,4.13,0,0,0,.9-.19h.12a13.17,13.17,0,0,0,5.93-3.22h0c.51-.56,5.39-5.56,14.59.36a18.89,18.89,0,0,0,10.22,3.4,13.66,13.66,0,0,0,6.11-1.45Z"/><path class="cls-4" d="M571.57,101.46c-1.64,1.31-6.63,4.22-14.43-.81-12.07-7.78-19.09.24-19.16.32h0a8.38,8.38,0,0,1-2.32,1.54h0a9.33,9.33,0,0,1-2.78.8h-.12l-.52,0h-1.72l-.59-.06h-.27l-.5-.09-.31-.07a3.53,3.53,0,0,1-.54-.13l-.29-.07-.82-.27-.21-.08-.67-.26-.35-.15-.58-.27-.37-.18-.62-.34-.34-.18-1-.6c-11.69-7.54-18.65-.25-19.13.29h0c-.83.81-6.06,5.3-14.91-.4-12.06-7.77-19.08.24-19.16.32h0c-.66.67-5.93,5.47-15-.34-11.48-7.41-18.39-.52-19.09.24h0c-.22.24-5.56,5.81-15-.28-12.07-7.78-19.09.24-19.16.32h0a8.33,8.33,0,0,1-2.31,1.54h0a9.65,9.65,0,0,1-2.78.81h-2.39l-.58-.06h-.28l-.5-.09-.31-.06-.54-.13-.28-.08c-.27-.08-.55-.16-.83-.26l-.21-.08-.67-.27-.34-.15-.58-.26-.37-.19-.63-.33-.33-.19c-.33-.18-.65-.38-1-.6-11.69-7.54-18.64-.24-19.13.29h0c-.83.81-6.06,5.3-14.9-.39-12.07-7.78-19.09.24-19.16.32h0c-.66.66-5.92,5.47-14.95-.35-12-7.72-19,.1-19.15.31-.74.74-6,5.39-14.94-.37-12.06-7.78-19.09.24-19.16.32h0c-.93.9-6.15,5.19-14.87-.43-12.06-7.78-19.09.24-19.16.32h0a8.33,8.33,0,0,1-2.31,1.54h0a9.65,9.65,0,0,1-2.78.81H223.8l-.58-.06H223l-.51-.09-.3-.07-.54-.13-.29-.08c-.27-.08-.55-.16-.83-.26l-.2-.08-.68-.26-.34-.15-.58-.27-.37-.18-.63-.34-.33-.19-1-.59c-12-7.77-19,.2-19.15.31-.83.82-6.07,5.3-14.91-.39-12.06-7.78-19.09.24-19.16.32h0c-.66.67-5.92,5.47-15-.35-11.48-7.4-18.39-.51-19.09.25h0c-.22.25-5.56,5.82-15-.27-12.07-7.79-19.09.23-19.16.31h0a8.38,8.38,0,0,1-2.32,1.54h0a9.33,9.33,0,0,1-2.78.8H87.42l-.59-.07h-.27l-.5-.09-.31-.06-.54-.14-.21,0c-.28-.08-.55-.17-.83-.27l-.21-.08c-.22-.08-.45-.16-.67-.26l-.35-.15-.58-.27-.36-.18c-.21-.1-.42-.22-.63-.33l-.34-.19c-.32-.19-.65-.38-1-.6-11.69-7.54-18.64-.25-19.13.29h0c-.83.81-6.06,5.3-14.91-.39-12.06-7.78-19.08.23-19.15.31h0c-.66.66-5.93,5.47-15-.35C7.08,96.6,3.08,96,0,96.41v3.2c2.4-.41,5.73,0,10,2.73a18.66,18.66,0,0,0,10.22,3.39A13.22,13.22,0,0,0,29.44,102l-.38-.32.4.31c.21-.25,5.11-5.82,14.63.32a18.83,18.83,0,0,0,10.22,3.39,13.23,13.23,0,0,0,9.2-3.64h0A8.55,8.55,0,0,1,70,99.57a15.83,15.83,0,0,1,8.18,2.87c.49.32,1,.61,1.45.88a21.76,21.76,0,0,0,2.76,1.31c.45.17.88.33,1.31.46a15.29,15.29,0,0,0,4.7.74h1.15a3.12,3.12,0,0,0,.73-.09h.37c.3,0,.6-.11.9-.19h.12a13,13,0,0,0,5.93-3.22h0c.51-.57,5.39-5.57,14.59.36a18.85,18.85,0,0,0,10.22,3.39,13.15,13.15,0,0,0,9.24-3.68l-.38-.3.42.32c.21-.25,5.11-5.82,14.63.31a18.76,18.76,0,0,0,10.22,3.4,13.26,13.26,0,0,0,9.24-3.68l-.38-.31.4.3c.21-.24,5.11-5.81,14.63.32A18.8,18.8,0,0,0,190.66,106a13.19,13.19,0,0,0,9.21-3.64h0a8.45,8.45,0,0,1,6.44-2.55,15.69,15.69,0,0,1,8.19,2.87A18.84,18.84,0,0,0,224.73,106a8.7,8.7,0,0,0,1.14,0l.74-.09c.25,0,.24,0,.36-.06a4.08,4.08,0,0,0,.91-.18H228a12.91,12.91,0,0,0,5.92-3.23h0c.51-.56,5.39-5.57,14.6.36a18.71,18.71,0,0,0,10.21,3.39,13.15,13.15,0,0,0,9.17-3.61H268c.63-.67,5.5-5.45,14.57.39a18.72,18.72,0,0,0,10.21,3.4,13.28,13.28,0,0,0,9.23-3.66h0c.21-.24,5.11-5.81,14.63.32a18.74,18.74,0,0,0,10.22,3.39,13.2,13.2,0,0,0,9.24-3.67l-.38-.31.4.3c.21-.24,5.11-5.82,14.63.32A18.73,18.73,0,0,0,361,106.32a13.23,13.23,0,0,0,9.2-3.64h0a8.52,8.52,0,0,1,6.45-2.55,15.8,15.8,0,0,1,8.19,2.86c.49.32,1,.61,1.45.88a21.76,21.76,0,0,0,2.76,1.31c.44.18.88.33,1.3.46a15.61,15.61,0,0,0,4.7.75,11.07,11.07,0,0,0,1.15-.06,2,2,0,0,0,.73-.09h.37c.31,0,.6-.11.9-.18h.13a12.91,12.91,0,0,0,5.92-3.23h0c.51-.56,5.39-5.57,14.59.36a18.74,18.74,0,0,0,10.22,3.39,13.2,13.2,0,0,0,9.24-3.67l-.37-.31.41.32c.22-.24,5.11-5.82,14.64.32a18.83,18.83,0,0,0,10.22,3.39,13.26,13.26,0,0,0,9.24-3.68l-.38-.31.39.31c.22-.25,5.12-5.82,14.64.31a18.72,18.72,0,0,0,10.21,3.4,13.25,13.25,0,0,0,9.21-3.65h0a8.49,8.49,0,0,1,6.44-2.55,15.81,15.81,0,0,1,8.19,2.87,18.74,18.74,0,0,0,10.22,3.39h1.15l.73-.09h.37a4.13,4.13,0,0,0,.9-.19h.12a13.17,13.17,0,0,0,5.93-3.22h0c.51-.56,5.39-5.56,14.59.36a18.73,18.73,0,0,0,10.22,3.4,13.53,13.53,0,0,0,6.11-1.45Z"/></svg>